<svg viewBox="0 0 226.771653543 98.30729423" width="226.771653543pt" height="98.30729423pt" xmlns="http://www.w3.org/2000/svg" xmlns:xlink="http://www.w3.org/1999/xlink" xmlns:h5="http://www.w3.org/1999/xhtml"><path fill="#ffffff" fill-rule="nonzero" d="M 0 0v 98.30729423h 226.771653543v -98.30729423Z "/><path fill="none" stroke="#eea7a7" stroke-width="0.4" stroke-linecap="butt" stroke-linejoin="miter" stroke-miterlimit="4" transform="translate(8.503937008 8.503937008)" d="M 0 0v 73.700787402h 127.559055118v -73.700787402Z "/><g transform="translate(8.503937008 8.503937008)" clip-path="url(#c30941A088BBCBE1834EC36370D5C7D7B)"><path fill="none" stroke="#eea7a7" stroke-width="0.45" stroke-linecap="butt" stroke-linejoin="miter" stroke-miterlimit="4" d="M 0 0v 73.700787402"/><path fill="none" stroke="#f9dcdc" stroke-width="0.18" stroke-linecap="butt" stroke-linejoin="miter" stroke-miterlimit="4" transform="translate(2.834645669)" d="M 0 0v 73.700787402"/><path fill="none" stroke="#f9dcdc" stroke-width="0.18" stroke-linecap="butt" stroke-linejoin="miter" stroke-miterlimit="4" transform="translate(5.669291339)" d="M 0 0v 73.700787402"/><path fill="none" stroke="#f9dcdc" stroke-width="0.18" stroke-linecap="butt" stroke-linejoin="miter" stroke-miterlimit="4" transform="translate(8.503937008)" d="M 0 0v 73.700787402"/><path fill="none" stroke="#f9dcdc" stroke-width="0.18" stroke-linecap="butt" stroke-linejoin="miter" stroke-miterlimit="4" transform="translate(11.338582677)" d="M 0 0v 73.700787402"/><path fill="none" stroke="#eea7a7" stroke-width="0.45" stroke-linecap="butt" stroke-linejoin="miter" stroke-miterlimit="4" transform="translate(14.173228346)" d="M 0 0v 73.700787402"/><path fill="none" stroke="#f9dcdc" stroke-width="0.18" stroke-linecap="butt" stroke-linejoin="miter" stroke-miterlimit="4" transform="translate(17.007874016)" d="M 0 0v 73.700787402"/><path fill="none" stroke="#f9dcdc" stroke-width="0.18" stroke-linecap="butt" stroke-linejoin="miter" stroke-miterlimit="4" transform="translate(19.842519685)" d="M 0 0v 73.700787402"/><path fill="none" stroke="#f9dcdc" stroke-width="0.18" stroke-linecap="butt" stroke-linejoin="miter" stroke-miterlimit="4" transform="translate(22.677165354)" d="M 0 0v 73.700787402"/><path fill="none" stroke="#f9dcdc" stroke-width="0.18" stroke-linecap="butt" stroke-linejoin="miter" stroke-miterlimit="4" transform="translate(25.511811024)" d="M 0 0v 73.700787402"/><path fill="none" stroke="#eea7a7" stroke-width="0.45" stroke-linecap="butt" stroke-linejoin="miter" stroke-miterlimit="4" transform="translate(28.346456693)" d="M 0 0v 73.700787402"/><path fill="none" stroke="#f9dcdc" stroke-width="0.18" stroke-linecap="butt" stroke-linejoin="miter" stroke-miterlimit="4" transform="translate(31.181102362)" d="M 0 0v 73.700787402"/><path fill="none" stroke="#f9dcdc" stroke-width="0.18" stroke-linecap="butt" stroke-linejoin="miter" stroke-miterlimit="4" transform="translate(34.015748031)" d="M 0 0v 73.700787402"/><path fill="none" stroke="#f9dcdc" stroke-width="0.18" stroke-linecap="butt" stroke-linejoin="miter" stroke-miterlimit="4" transform="translate(36.850393701)" d="M 0 0v 73.700787402"/><path fill="none" stroke="#f9dcdc" stroke-width="0.18" stroke-linecap="butt" stroke-linejoin="miter" stroke-miterlimit="4" transform="translate(39.68503937)" d="M 0 0v 73.700787402"/><path fill="none" stroke="#eea7a7" stroke-width="0.45" stroke-linecap="butt" stroke-linejoin="miter" stroke-miterlimit="4" transform="translate(42.519685039)" d="M 0 0v 73.700787402"/><path fill="none" stroke="#f9dcdc" stroke-width="0.18" stroke-linecap="butt" stroke-linejoin="miter" stroke-miterlimit="4" transform="translate(45.354330709)" d="M 0 0v 73.700787402"/><path fill="none" stroke="#f9dcdc" stroke-width="0.18" stroke-linecap="butt" stroke-linejoin="miter" stroke-miterlimit="4" transform="translate(48.188976378)" d="M 0 0v 73.700787402"/><path fill="none" stroke="#f9dcdc" stroke-width="0.18" stroke-linecap="butt" stroke-linejoin="miter" stroke-miterlimit="4" transform="translate(51.023622047)" d="M 0 0v 73.700787402"/><path fill="none" stroke="#f9dcdc" stroke-width="0.18" stroke-linecap="butt" stroke-linejoin="miter" stroke-miterlimit="4" transform="translate(53.858267717)" d="M 0 0v 73.700787402"/><path fill="none" stroke="#eea7a7" stroke-width="0.45" stroke-linecap="butt" stroke-linejoin="miter" stroke-miterlimit="4" transform="translate(56.692913386)" d="M 0 0v 73.700787402"/><path fill="none" stroke="#f9dcdc" stroke-width="0.18" stroke-linecap="butt" stroke-linejoin="miter" stroke-miterlimit="4" transform="translate(59.527559055)" d="M 0 0v 73.700787402"/><path fill="none" stroke="#f9dcdc" stroke-width="0.18" stroke-linecap="butt" stroke-linejoin="miter" stroke-miterlimit="4" transform="translate(62.362204724)" d="M 0 0v 73.700787402"/><path fill="none" stroke="#f9dcdc" stroke-width="0.18" stroke-linecap="butt" stroke-linejoin="miter" stroke-miterlimit="4" transform="translate(65.196850394)" d="M 0 0v 73.700787402"/><path fill="none" stroke="#f9dcdc" stroke-width="0.18" stroke-linecap="butt" stroke-linejoin="miter" stroke-miterlimit="4" transform="translate(68.031496063)" d="M 0 0v 73.700787402"/><path fill="none" stroke="#eea7a7" stroke-width="0.45" stroke-linecap="butt" stroke-linejoin="miter" stroke-miterlimit="4" transform="translate(70.866141732)" d="M 0 0v 73.700787402"/><path fill="none" stroke="#f9dcdc" stroke-width="0.18" stroke-linecap="butt" stroke-linejoin="miter" stroke-miterlimit="4" transform="translate(73.700787402)" d="M 0 0v 73.700787402"/><path fill="none" stroke="#f9dcdc" stroke-width="0.18" stroke-linecap="butt" stroke-linejoin="miter" stroke-miterlimit="4" transform="translate(76.535433071)" d="M 0 0v 73.700787402"/><path fill="none" stroke="#f9dcdc" stroke-width="0.18" stroke-linecap="butt" stroke-linejoin="miter" stroke-miterlimit="4" transform="translate(79.37007874)" d="M 0 0v 73.700787402"/><path fill="none" stroke="#f9dcdc" stroke-width="0.18" stroke-linecap="butt" stroke-linejoin="miter" stroke-miterlimit="4" transform="translate(82.204724409)" d="M 0 0v 73.700787402"/><path fill="none" stroke="#eea7a7" stroke-width="0.45" stroke-linecap="butt" stroke-linejoin="miter" stroke-miterlimit="4" transform="translate(85.039370079)" d="M 0 0v 73.700787402"/><path fill="none" stroke="#f9dcdc" stroke-width="0.18" stroke-linecap="butt" stroke-linejoin="miter" stroke-miterlimit="4" transform="translate(87.874015748)" d="M 0 0v 73.700787402"/><path fill="none" stroke="#f9dcdc" stroke-width="0.18" stroke-linecap="butt" stroke-linejoin="miter" stroke-miterlimit="4" transform="translate(90.708661417)" d="M 0 0v 73.700787402"/><path fill="none" stroke="#f9dcdc" stroke-width="0.18" stroke-linecap="butt" stroke-linejoin="miter" stroke-miterlimit="4" transform="translate(93.543307087)" d="M 0 0v 73.700787402"/><path fill="none" stroke="#f9dcdc" stroke-width="0.18" stroke-linecap="butt" stroke-linejoin="miter" stroke-miterlimit="4" transform="translate(96.377952756)" d="M 0 0v 73.700787402"/><path fill="none" stroke="#eea7a7" stroke-width="0.45" stroke-linecap="butt" stroke-linejoin="miter" stroke-miterlimit="4" transform="translate(99.212598425)" d="M 0 0v 73.700787402"/><path fill="none" stroke="#f9dcdc" stroke-width="0.18" stroke-linecap="butt" stroke-linejoin="miter" stroke-miterlimit="4" transform="translate(102.047244094)" d="M 0 0v 73.700787402"/><path fill="none" stroke="#f9dcdc" stroke-width="0.18" stroke-linecap="butt" stroke-linejoin="miter" stroke-miterlimit="4" transform="translate(104.881889764)" d="M 0 0v 73.700787402"/><path fill="none" stroke="#f9dcdc" stroke-width="0.18" stroke-linecap="butt" stroke-linejoin="miter" stroke-miterlimit="4" transform="translate(107.716535433)" d="M 0 0v 73.700787402"/><path fill="none" stroke="#f9dcdc" stroke-width="0.18" stroke-linecap="butt" stroke-linejoin="miter" stroke-miterlimit="4" transform="translate(110.551181102)" d="M 0 0v 73.700787402"/><path fill="none" stroke="#eea7a7" stroke-width="0.45" stroke-linecap="butt" stroke-linejoin="miter" stroke-miterlimit="4" transform="translate(113.385826772)" d="M 0 0v 73.700787402"/><path fill="none" stroke="#f9dcdc" stroke-width="0.18" stroke-linecap="butt" stroke-linejoin="miter" stroke-miterlimit="4" transform="translate(116.220472441)" d="M 0 0v 73.700787402"/><path fill="none" stroke="#f9dcdc" stroke-width="0.18" stroke-linecap="butt" stroke-linejoin="miter" stroke-miterlimit="4" transform="translate(119.05511811)" d="M 0 0v 73.700787402"/><path fill="none" stroke="#f9dcdc" stroke-width="0.18" stroke-linecap="butt" stroke-linejoin="miter" stroke-miterlimit="4" transform="translate(121.88976378)" d="M 0 0v 73.700787402"/><path fill="none" stroke="#f9dcdc" stroke-width="0.18" stroke-linecap="butt" stroke-linejoin="miter" stroke-miterlimit="4" transform="translate(124.724409449)" d="M 0 0v 73.700787402"/><path fill="none" stroke="#eea7a7" stroke-width="0.45" stroke-linecap="butt" stroke-linejoin="miter" stroke-miterlimit="4" transform="translate(127.559055118)" d="M 0 0v 73.700787402"/><path fill="none" stroke="#eea7a7" stroke-width="0.45" stroke-linecap="butt" stroke-linejoin="miter" stroke-miterlimit="4" d="M 0 0h 127.559055118"/><path fill="none" stroke="#f9dcdc" stroke-width="0.18" stroke-linecap="butt" stroke-linejoin="miter" stroke-miterlimit="4" transform="translate(0 2.834645669)" d="M 0 0h 127.559055118"/><path fill="none" stroke="#f9dcdc" stroke-width="0.18" stroke-linecap="butt" stroke-linejoin="miter" stroke-miterlimit="4" transform="translate(0 5.669291339)" d="M 0 0h 127.559055118"/><path fill="none" stroke="#f9dcdc" stroke-width="0.18" stroke-linecap="butt" stroke-linejoin="miter" stroke-miterlimit="4" transform="translate(0 8.503937008)" d="M 0 0h 127.559055118"/><path fill="none" stroke="#f9dcdc" stroke-width="0.18" stroke-linecap="butt" stroke-linejoin="miter" stroke-miterlimit="4" transform="translate(0 11.338582677)" d="M 0 0h 127.559055118"/><path fill="none" stroke="#eea7a7" stroke-width="0.45" stroke-linecap="butt" stroke-linejoin="miter" stroke-miterlimit="4" transform="translate(0 14.173228346)" d="M 0 0h 127.559055118"/><path fill="none" stroke="#f9dcdc" stroke-width="0.18" stroke-linecap="butt" stroke-linejoin="miter" stroke-miterlimit="4" transform="translate(0 17.007874016)" d="M 0 0h 127.559055118"/><path fill="none" stroke="#f9dcdc" stroke-width="0.18" stroke-linecap="butt" stroke-linejoin="miter" stroke-miterlimit="4" transform="translate(0 19.842519685)" d="M 0 0h 127.559055118"/><path fill="none" stroke="#f9dcdc" stroke-width="0.18" stroke-linecap="butt" stroke-linejoin="miter" stroke-miterlimit="4" transform="translate(0 22.677165354)" d="M 0 0h 127.559055118"/><path fill="none" stroke="#f9dcdc" stroke-width="0.18" stroke-linecap="butt" stroke-linejoin="miter" stroke-miterlimit="4" transform="translate(0 25.511811024)" d="M 0 0h 127.559055118"/><path fill="none" stroke="#eea7a7" stroke-width="0.45" stroke-linecap="butt" stroke-linejoin="miter" stroke-miterlimit="4" transform="translate(0 28.346456693)" d="M 0 0h 127.559055118"/><path fill="none" stroke="#f9dcdc" stroke-width="0.18" stroke-linecap="butt" stroke-linejoin="miter" stroke-miterlimit="4" transform="translate(0 31.181102362)" d="M 0 0h 127.559055118"/><path fill="none" stroke="#f9dcdc" stroke-width="0.18" stroke-linecap="butt" stroke-linejoin="miter" stroke-miterlimit="4" transform="translate(0 34.015748031)" d="M 0 0h 127.559055118"/><path fill="none" stroke="#f9dcdc" stroke-width="0.18" stroke-linecap="butt" stroke-linejoin="miter" stroke-miterlimit="4" transform="translate(0 36.850393701)" d="M 0 0h 127.559055118"/><path fill="none" stroke="#f9dcdc" stroke-width="0.18" stroke-linecap="butt" stroke-linejoin="miter" stroke-miterlimit="4" transform="translate(0 39.68503937)" d="M 0 0h 127.559055118"/><path fill="none" stroke="#eea7a7" stroke-width="0.45" stroke-linecap="butt" stroke-linejoin="miter" stroke-miterlimit="4" transform="translate(0 42.519685039)" d="M 0 0h 127.559055118"/><path fill="none" stroke="#f9dcdc" stroke-width="0.18" stroke-linecap="butt" stroke-linejoin="miter" stroke-miterlimit="4" transform="translate(0 45.354330709)" d="M 0 0h 127.559055118"/><path fill="none" stroke="#f9dcdc" stroke-width="0.18" stroke-linecap="butt" stroke-linejoin="miter" stroke-miterlimit="4" transform="translate(0 48.188976378)" d="M 0 0h 127.559055118"/><path fill="none" stroke="#f9dcdc" stroke-width="0.18" stroke-linecap="butt" stroke-linejoin="miter" stroke-miterlimit="4" transform="translate(0 51.023622047)" d="M 0 0h 127.559055118"/><path fill="none" stroke="#f9dcdc" stroke-width="0.18" stroke-linecap="butt" stroke-linejoin="miter" stroke-miterlimit="4" transform="translate(0 53.858267717)" d="M 0 0h 127.559055118"/><path fill="none" stroke="#eea7a7" stroke-width="0.45" stroke-linecap="butt" stroke-linejoin="miter" stroke-miterlimit="4" transform="translate(0 56.692913386)" d="M 0 0h 127.559055118"/><path fill="none" stroke="#f9dcdc" stroke-width="0.18" stroke-linecap="butt" stroke-linejoin="miter" stroke-miterlimit="4" transform="translate(0 59.527559055)" d="M 0 0h 127.559055118"/><path fill="none" stroke="#f9dcdc" stroke-width="0.18" stroke-linecap="butt" stroke-linejoin="miter" stroke-miterlimit="4" transform="translate(0 62.362204724)" d="M 0 0h 127.559055118"/><path fill="none" stroke="#f9dcdc" stroke-width="0.18" stroke-linecap="butt" stroke-linejoin="miter" stroke-miterlimit="4" transform="translate(0 65.196850394)" d="M 0 0h 127.559055118"/><path fill="none" stroke="#f9dcdc" stroke-width="0.18" stroke-linecap="butt" stroke-linejoin="miter" stroke-miterlimit="4" transform="translate(0 68.031496063)" d="M 0 0h 127.559055118"/><path fill="none" stroke="#eea7a7" stroke-width="0.45" stroke-linecap="butt" stroke-linejoin="miter" stroke-miterlimit="4" transform="translate(0 70.866141732)" d="M 0 0h 127.559055118"/><path fill="none" stroke="#f9dcdc" stroke-width="0.18" stroke-linecap="butt" stroke-linejoin="miter" stroke-miterlimit="4" transform="translate(0 73.700787402)" d="M 0 0h 127.559055118"/><path fill="none" stroke="#000000" stroke-width="0.85" stroke-linecap="butt" stroke-linejoin="round" stroke-miterlimit="4" d="M 0 0m 0 45.354330709h 0.141732283h 0.141732283h 0.141732283h 0.141732283h 0.141732283h 0.141732283h 0.141732283h 0.141732283h 0.141732283h 0.141732283h 0.141732283h 0.141732283h 0.141732283h 0.141732283h 0.141732283h 0.141732283h 0.141732283h 0.141732283h 0.141732283h 0.141732283h 0.141732283h 0.141732283h 0.141732283h 0.141732283h 0.141732283h 0.141732283h 0.141732283l 0.141732283 -0.028346457h 0.141732283h 0.141732283h 0.141732283h 0.141732283l 0.141732283 -0.028346457h 0.141732283l 0.141732283 -0.028346457l 0.141732283 -0.028346457l 0.141732283 -0.028346457l 0.141732283 -0.028346457l 0.141732283 -0.028346457l 0.141732283 -0.028346457l 0.141732283 -0.056692913l 0.141732283 -0.056692913l 0.141732283 -0.08503937l 0.141732283 -0.056692913l 0.141732283 -0.08503937l 0.141732283 -0.113385827l 0.141732283 -0.113385827l 0.141732283 -0.113385827l 0.141732283 -0.141732283l 0.141732283 -0.141732283l 0.141732283 -0.141732283l 0.141732283 -0.17007874l 0.141732283 -0.17007874l 0.141732283 -0.198425197l 0.141732283 -0.198425197l 0.141732283 -0.198425197l 0.141732283 -0.198425197l 0.141732283 -0.226771654l 0.141732283 -0.198425197l 0.141732283 -0.198425197l 0.141732283 -0.198425197l 0.141732283 -0.17007874l 0.141732283 -0.17007874l 0.141732283 -0.17007874l 0.141732283 -0.113385827l 0.141732283 -0.141732283l 0.141732283 -0.08503937l 0.141732283 -0.056692913l 0.141732283 -0.056692913h 0.141732283h 0.141732283l 0.141732283 0.056692913l 0.141732283 0.056692913l 0.141732283 0.08503937l 0.141732283 0.141732283l 0.141732283 0.113385827l 0.141732283 0.17007874l 0.141732283 0.17007874l 0.141732283 0.17007874l 0.141732283 0.198425197l 0.141732283 0.198425197l 0.141732283 0.198425197l 0.141732283 0.226771654l 0.141732283 0.198425197l 0.141732283 0.198425197l 0.141732283 0.198425197l 0.141732283 0.198425197l 0.141732283 0.17007874l 0.141732283 0.17007874l 0.141732283 0.141732283l 0.141732283 0.141732283l 0.141732283 0.141732283l 0.141732283 0.113385827l 0.141732283 0.113385827l 0.141732283 0.113385827l 0.141732283 0.08503937l 0.141732283 0.056692913l 0.141732283 0.08503937l 0.141732283 0.056692913l 0.141732283 0.056692913l 0.141732283 0.028346457l 0.141732283 0.028346457l 0.141732283 0.028346457l 0.141732283 0.028346457l 0.141732283 0.028346457l 0.141732283 0.028346457h 0.141732283l 0.141732283 0.028346457h 0.141732283h 0.141732283h 0.141732283h 0.141732283l 0.141732283 0.028346457h 0.141732283h 0.141732283h 0.141732283h 0.141732283h 0.141732283h 0.141732283h 0.141732283l 0.141732283 -0.028346457h 0.141732283l 0.141732283 -0.028346457l 0.141732283 -0.08503937l 0.141732283 -0.08503937l 0.141732283 -0.17007874l 0.141732283 -0.311811024l 0.141732283 -0.42519685l 0.141732283 -0.680314961l 0.141732283 -0.963779528l 0.141732283 -1.360629921l 0.141732283 -1.814173228l 0.141732283 -2.324409449l 0.141732283 -2.891338583l 0.141732283 -3.373228346l 0.141732283 -3.77007874l 0.141732283 -4.02519685l 0.141732283 -4.02519685l 0.141732283 -3.68503937l 0.141732283 -3.118110236l 0.141732283 -2.239370079l 0.141732283 -1.105511811l 0.141732283 0.141732283l 0.141732283 1.360629921l 0.141732283 2.551181102l 0.141732283 3.486614173l 0.141732283 4.195275591l 0.141732283 4.563779528l 0.141732283 4.648818898l 0.141732283 4.450393701l 0.141732283 4.081889764l 0.141732283 3.486614173l 0.141732283 2.834645669l 0.141732283 2.125984252l 0.141732283 1.474015748l 0.141732283 0.850393701l 0.141732283 0.368503937l 0.141732283 0.028346457l 0.141732283 -0.141732283l 0.141732283 -0.311811024l 0.141732283 -0.368503937l 0.141732283 -0.396850394l 0.141732283 -0.311811024l 0.141732283 -0.25511811l 0.141732283 -0.141732283l 0.141732283 -0.25511811l 0.141732283 -0.17007874l 0.141732283 -0.141732283l 0.141732283 -0.056692913l 0.141732283 -0.056692913h 0.141732283l 0.141732283 -0.028346457h 0.141732283h 0.141732283l 0.141732283 0.028346457h 0.141732283h 0.141732283l 0.141732283 0.028346457h 0.141732283l 0.141732283 0.028346457l 0.141732283 0.028346457h 0.141732283l 0.141732283 0.028346457l 0.141732283 0.028346457l 0.141732283 0.028346457l 0.141732283 0.028346457l 0.141732283 0.028346457l 0.141732283 0.028346457l 0.141732283 0.028346457l 0.141732283 0.028346457l 0.141732283 0.056692913l 0.141732283 0.028346457l 0.141732283 0.056692913l 0.141732283 0.028346457l 0.141732283 0.056692913l 0.141732283 0.056692913l 0.141732283 0.056692913l 0.141732283 0.056692913l 0.141732283 0.056692913l 0.141732283 0.08503937l 0.141732283 0.056692913l 0.141732283 0.08503937l 0.141732283 0.08503937l 0.141732283 0.08503937l 0.141732283 0.08503937l 0.141732283 0.08503937l 0.141732283 0.08503937l 0.141732283 0.113385827l 0.141732283 0.113385827l 0.141732283 0.113385827l 0.141732283 0.113385827l 0.141732283 0.113385827l 0.141732283 0.113385827l 0.141732283 0.113385827l 0.141732283 0.141732283l 0.141732283 0.113385827l 0.141732283 0.141732283l 0.141732283 0.141732283l 0.141732283 0.141732283l 0.141732283 0.141732283l 0.141732283 0.141732283l 0.141732283 0.17007874l 0.141732283 0.141732283l 0.141732283 0.141732283l 0.141732283 0.17007874l 0.141732283 0.141732283l 0.141732283 0.17007874l 0.141732283 0.141732283l 0.141732283 0.17007874l 0.141732283 0.141732283l 0.141732283 0.17007874l 0.141732283 0.141732283l 0.141732283 0.17007874l 0.141732283 0.141732283l 0.141732283 0.141732283l 0.141732283 0.141732283l 0.141732283 0.141732283l 0.141732283 0.141732283l 0.141732283 0.113385827l 0.141732283 0.113385827l 0.141732283 0.141732283l 0.141732283 0.113385827l 0.141732283 0.08503937l 0.141732283 0.113385827l 0.141732283 0.08503937l 0.141732283 0.08503937l 0.141732283 0.08503937l 0.141732283 0.056692913l 0.141732283 0.056692913l 0.141732283 0.056692913l 0.141732283 0.028346457l 0.141732283 0.056692913h 0.141732283l 0.141732283 0.028346457h 0.141732283l 0.141732283 -0.028346457l 0.141732283 -0.056692913l 0.141732283 -0.056692913l 0.141732283 -0.08503937l 0.141732283 -0.056692913l 0.141732283 -0.08503937l 0.141732283 -0.113385827l 0.141732283 -0.08503937l 0.141732283 -0.113385827l 0.141732283 -0.113385827l 0.141732283 -0.141732283l 0.141732283 -0.141732283l 0.141732283 -0.141732283l 0.141732283 -0.141732283l 0.141732283 -0.141732283l 0.141732283 -0.17007874l 0.141732283 -0.17007874l 0.141732283 -0.17007874l 0.141732283 -0.17007874l 0.141732283 -0.17007874l 0.141732283 -0.17007874l 0.141732283 -0.198425197l 0.141732283 -0.198425197l 0.141732283 -0.17007874l 0.141732283 -0.198425197l 0.141732283 -0.198425197l 0.141732283 -0.17007874l 0.141732283 -0.198425197l 0.141732283 -0.198425197l 0.141732283 -0.198425197l 0.141732283 -0.17007874l 0.141732283 -0.198425197l 0.141732283 -0.198425197l 0.141732283 -0.17007874l 0.141732283 -0.198425197l 0.141732283 -0.17007874l 0.141732283 -0.17007874l 0.141732283 -0.17007874l 0.141732283 -0.17007874l 0.141732283 -0.17007874l 0.141732283 -0.141732283l 0.141732283 -0.113385827l 0.141732283 -0.113385827l 0.141732283 -0.113385827l 0.141732283 -0.113385827l 0.141732283 -0.113385827l 0.141732283 -0.113385827l 0.141732283 -0.113385827l 0.141732283 -0.08503937l 0.141732283 -0.08503937l 0.141732283 -0.08503937l 0.141732283 -0.08503937l 0.141732283 -0.08503937l 0.141732283 -0.08503937l 0.141732283 -0.056692913l 0.141732283 -0.08503937l 0.141732283 -0.056692913l 0.141732283 -0.056692913l 0.141732283 -0.056692913l 0.141732283 -0.056692913l 0.141732283 -0.056692913l 0.141732283 -0.028346457l 0.141732283 -0.056692913l 0.141732283 -0.028346457l 0.141732283 -0.056692913l 0.141732283 -0.028346457l 0.141732283 -0.028346457l 0.141732283 -0.028346457l 0.141732283 -0.028346457l 0.141732283 -0.028346457l 0.141732283 -0.028346457l 0.141732283 -0.028346457l 0.141732283 -0.028346457h 0.141732283l 0.141732283 -0.028346457l 0.141732283 -0.028346457h 0.141732283l 0.141732283 -0.028346457h 0.141732283h 0.141732283l 0.141732283 -0.028346457h 0.141732283h 0.141732283l 0.141732283 -0.028346457h 0.141732283h 0.141732283h 0.141732283l 0.141732283 -0.028346457h 0.141732283h 0.141732283h 0.141732283h 0.141732283h 0.141732283h 0.141732283h 0.141732283h 0.141732283l 0.141732283 -0.028346457h 0.141732283h 0.141732283h 0.141732283h 0.141732283h 0.141732283h 0.141732283h 0.141732283h 0.141732283h 0.141732283h 0.141732283h 0.141732283h 0.141732283h 0.141732283h 0.141732283h 0.141732283h 0.141732283h 0.141732283h 0.141732283h 0.141732283h 0.141732283h 0.141732283h 0.141732283h 0.141732283h 0.141732283h 0.141732283h 0.141732283h 0.141732283h 0.141732283h 0.141732283h 0.141732283h 0.141732283h 0.141732283h 0.141732283h 0.141732283h 0.141732283h 0.141732283h 0.141732283h 0.141732283h 0.141732283h 0.141732283h 0.141732283h 0.141732283h 0.141732283h 0.141732283h 0.141732283h 0.141732283h 0.141732283h 0.141732283h 0.141732283h 0.141732283h 0.141732283h 0.141732283h 0.141732283h 0.141732283h 0.141732283h 0.141732283h 0.141732283h 0.141732283h 0.141732283h 0.141732283h 0.141732283h 0.141732283h 0.141732283h 0.141732283h 0.141732283h 0.141732283h 0.141732283h 0.141732283h 0.141732283h 0.141732283h 0.141732283h 0.141732283h 0.141732283h 0.141732283h 0.141732283h 0.141732283h 0.141732283h 0.141732283h 0.141732283h 0.141732283h 0.141732283h 0.141732283h 0.141732283h 0.141732283h 0.141732283h 0.141732283h 0.141732283h 0.141732283h 0.141732283h 0.141732283h 0.141732283h 0.141732283h 0.141732283h 0.141732283h 0.141732283h 0.141732283h 0.141732283h 0.141732283h 0.141732283h 0.141732283h 0.141732283h 0.141732283h 0.141732283h 0.141732283l 0.141732283 -0.028346457h 0.141732283h 0.141732283h 0.141732283l 0.141732283 -0.028346457h 0.141732283l 0.141732283 -0.028346457h 0.141732283l 0.141732283 -0.028346457l 0.141732283 -0.028346457l 0.141732283 -0.028346457l 0.141732283 -0.056692913l 0.141732283 -0.028346457l 0.141732283 -0.056692913l 0.141732283 -0.056692913l 0.141732283 -0.08503937l 0.141732283 -0.08503937l 0.141732283 -0.08503937l 0.141732283 -0.08503937l 0.141732283 -0.113385827l 0.141732283 -0.141732283l 0.141732283 -0.141732283l 0.141732283 -0.141732283l 0.141732283 -0.17007874l 0.141732283 -0.17007874l 0.141732283 -0.17007874l 0.141732283 -0.198425197l 0.141732283 -0.198425197l 0.141732283 -0.198425197l 0.141732283 -0.198425197l 0.141732283 -0.226771654l 0.141732283 -0.198425197l 0.141732283 -0.198425197l 0.141732283 -0.198425197l 0.141732283 -0.17007874l 0.141732283 -0.17007874l 0.141732283 -0.141732283l 0.141732283 -0.113385827l 0.141732283 -0.113385827l 0.141732283 -0.08503937l 0.141732283 -0.056692913l 0.141732283 -0.028346457h 0.141732283l 0.141732283 0.028346457l 0.141732283 0.056692913l 0.141732283 0.08503937l 0.141732283 0.08503937l 0.141732283 0.113385827l 0.141732283 0.17007874l 0.141732283 0.141732283l 0.141732283 0.198425197l 0.141732283 0.17007874l 0.141732283 0.198425197l 0.141732283 0.198425197l 0.141732283 0.226771654l 0.141732283 0.198425197l 0.141732283 0.198425197l 0.141732283 0.198425197l 0.141732283 0.198425197l 0.141732283 0.17007874l 0.141732283 0.17007874l 0.141732283 0.17007874l 0.141732283 0.17007874l 0.141732283 0.113385827l 0.141732283 0.141732283l 0.141732283 0.113385827l 0.141732283 0.113385827l 0.141732283 0.08503937l 0.141732283 0.08503937l 0.141732283 0.056692913l 0.141732283 0.08503937l 0.141732283 0.056692913l 0.141732283 0.028346457l 0.141732283 0.056692913l 0.141732283 0.028346457l 0.141732283 0.028346457l 0.141732283 0.028346457h 0.141732283l 0.141732283 0.028346457h 0.141732283l 0.141732283 0.028346457h 0.141732283h 0.141732283h 0.141732283l 0.141732283 0.028346457h 0.141732283h 0.141732283h 0.141732283h 0.141732283h 0.141732283h 0.141732283h 0.141732283h 0.141732283l 0.141732283 -0.028346457l 0.141732283 -0.028346457l 0.141732283 -0.028346457l 0.141732283 -0.08503937l 0.141732283 -0.141732283l 0.141732283 -0.198425197l 0.141732283 -0.34015748l 0.141732283 -0.538582677l 0.141732283 -0.793700787l 0.141732283 -1.133858268l 0.141732283 -1.530708661l 0.141732283 -2.040944882l 0.141732283 -2.579527559l 0.141732283 -3.08976378l 0.141732283 -3.571653543l 0.141732283 -3.911811024l 0.141732283 -4.02519685l 0.141732283 -3.94015748l 0.141732283 -3.486614173l 0.141732283 -2.749606299l 0.141732283 -1.757480315l 0.141732283 -0.595275591l 0.141732283 0.651968504l 0.141732283 1.899212598l 0.141732283 2.976377953l 0.141732283 3.826771654l 0.141732283 4.393700787l 0.141732283 4.620472441l 0.141732283 4.620472441l 0.141732283 4.308661417l 0.141732283 3.826771654l 0.141732283 3.231496063l 0.141732283 2.522834646l 0.141732283 1.842519685l 0.141732283 1.218897638l 0.141732283 0.623622047l 0.141732283 0.17007874l 0.141732283 -0.028346457l 0.141732283 -0.226771654l 0.141732283 -0.34015748l 0.141732283 -0.396850394l 0.141732283 -0.368503937l 0.141732283 -0.283464567l 0.141732283 -0.198425197l 0.141732283 -0.198425197l 0.141732283 -0.226771654l 0.141732283 -0.141732283l 0.141732283 -0.113385827l 0.141732283 -0.056692913l 0.141732283 -0.028346457l 0.141732283 -0.028346457h 0.141732283h 0.141732283l 0.141732283 0.028346457h 0.141732283h 0.141732283l 0.141732283 0.028346457h 0.141732283l 0.141732283 0.028346457h 0.141732283l 0.141732283 0.028346457l 0.141732283 0.028346457h 0.141732283l 0.141732283 0.028346457l 0.141732283 0.028346457l 0.141732283 0.028346457l 0.141732283 0.028346457l 0.141732283 0.028346457l 0.141732283 0.056692913l 0.141732283 0.028346457l 0.141732283 0.028346457l 0.141732283 0.056692913l 0.141732283 0.028346457l 0.141732283 0.056692913l 0.141732283 0.056692913l 0.141732283 0.056692913l 0.141732283 0.056692913l 0.141732283 0.056692913l 0.141732283 0.056692913l 0.141732283 0.08503937l 0.141732283 0.056692913l 0.141732283 0.08503937l 0.141732283 0.08503937l 0.141732283 0.08503937l 0.141732283 0.08503937l 0.141732283 0.113385827l 0.141732283 0.08503937l 0.141732283 0.113385827l 0.141732283 0.08503937l 0.141732283 0.113385827l 0.141732283 0.113385827l 0.141732283 0.113385827l 0.141732283 0.141732283l 0.141732283 0.113385827l 0.141732283 0.141732283l 0.141732283 0.113385827l 0.141732283 0.141732283l 0.141732283 0.141732283l 0.141732283 0.141732283l 0.141732283 0.141732283l 0.141732283 0.17007874l 0.141732283 0.141732283l 0.141732283 0.141732283l 0.141732283 0.17007874l 0.141732283 0.141732283l 0.141732283 0.17007874l 0.141732283 0.141732283l 0.141732283 0.17007874l 0.141732283 0.141732283l 0.141732283 0.17007874l 0.141732283 0.141732283l 0.141732283 0.17007874l 0.141732283 0.141732283l 0.141732283 0.141732283l 0.141732283 0.141732283l 0.141732283 0.141732283l 0.141732283 0.141732283l 0.141732283 0.113385827l 0.141732283 0.141732283l 0.141732283 0.113385827l 0.141732283 0.113385827l 0.141732283 0.113385827l 0.141732283 0.113385827l 0.141732283 0.08503937l 0.141732283 0.08503937l 0.141732283 0.08503937l 0.141732283 0.08503937l 0.141732283 0.056692913l 0.141732283 0.056692913l 0.141732283 0.056692913l 0.141732283 0.028346457l 0.141732283 0.028346457l 0.141732283 0.028346457h 0.141732283l 0.141732283 -0.028346457l 0.141732283 -0.028346457l 0.141732283 -0.056692913l 0.141732283 -0.056692913l 0.141732283 -0.08503937l 0.141732283 -0.08503937l 0.141732283 -0.08503937l 0.141732283 -0.08503937l 0.141732283 -0.113385827l 0.141732283 -0.113385827l 0.141732283 -0.113385827l 0.141732283 -0.141732283l 0.141732283 -0.141732283l 0.141732283 -0.141732283l 0.141732283 -0.141732283l 0.141732283 -0.17007874l 0.141732283 -0.141732283l 0.141732283 -0.17007874l 0.141732283 -0.17007874l 0.141732283 -0.198425197l 0.141732283 -0.17007874l 0.141732283 -0.17007874l 0.141732283 -0.198425197l 0.141732283 -0.17007874l 0.141732283 -0.198425197l 0.141732283 -0.198425197l 0.141732283 -0.17007874l 0.141732283 -0.198425197l 0.141732283 -0.198425197l 0.141732283 -0.198425197l 0.141732283 -0.17007874l 0.141732283 -0.198425197l 0.141732283 -0.198425197l 0.141732283 -0.17007874l 0.141732283 -0.198425197l 0.141732283 -0.17007874l 0.141732283 -0.198425197l 0.141732283 -0.17007874l 0.141732283 -0.17007874l 0.141732283 -0.17007874l 0.141732283 -0.141732283l 0.141732283 -0.141732283l 0.141732283 -0.113385827l 0.141732283 -0.113385827l 0.141732283 -0.113385827l 0.141732283 -0.113385827l 0.141732283 -0.113385827l 0.141732283 -0.113385827l 0.141732283 -0.08503937l 0.141732283 -0.08503937l 0.141732283 -0.08503937l 0.141732283 -0.08503937l 0.141732283 -0.08503937l 0.141732283 -0.08503937l 0.141732283 -0.08503937l 0.141732283 -0.056692913l 0.141732283 -0.08503937l 0.141732283 -0.056692913l 0.141732283 -0.056692913l 0.141732283 -0.056692913l 0.141732283 -0.056692913l 0.141732283 -0.028346457l 0.141732283 -0.056692913l 0.141732283 -0.056692913l 0.141732283 -0.028346457l 0.141732283 -0.028346457l 0.141732283 -0.028346457l 0.141732283 -0.056692913l 0.141732283 -0.028346457l 0.141732283 -0.028346457l 0.141732283 -0.028346457h 0.141732283l 0.141732283 -0.028346457l 0.141732283 -0.028346457l 0.141732283 -0.028346457h 0.141732283l 0.141732283 -0.028346457h 0.141732283l 0.141732283 -0.028346457h 0.141732283l 0.141732283 -0.028346457h 0.141732283h 0.141732283h 0.141732283l 0.141732283 -0.028346457h 0.141732283h 0.141732283h 0.141732283l 0.141732283 -0.028346457h 0.141732283h 0.141732283h 0.141732283h 0.141732283h 0.141732283h 0.141732283h 0.141732283h 0.141732283l 0.141732283 -0.028346457h 0.141732283h 0.141732283h 0.141732283h 0.141732283h 0.141732283h 0.141732283h 0.141732283h 0.141732283h 0.141732283h 0.141732283h 0.141732283h 0.141732283h 0.141732283h 0.141732283h 0.141732283h 0.141732283h 0.141732283h 0.141732283h 0.141732283h 0.141732283h 0.141732283h 0.141732283h 0.141732283h 0.141732283h 0.141732283h 0.141732283h 0.141732283h 0.141732283h 0.141732283h 0.141732283h 0.141732283h 0.141732283h 0.141732283h 0.141732283h 0.141732283h 0.141732283h 0.141732283h 0.141732283h 0.141732283h 0.141732283h 0.141732283h 0.141732283h 0.141732283h 0.141732283h 0.141732283h 0.141732283h 0.141732283h 0.141732283h 0.141732283h 0.141732283h 0.141732283h 0.141732283h 0.141732283h 0.141732283h 0.141732283h 0.141732283h 0.141732283h 0.141732283h 0.141732283h 0.141732283h 0.141732283h 0.141732283h 0.141732283h 0.141732283h 0.141732283h 0.141732283h 0.141732283h 0.141732283h 0.141732283h 0.141732283h 0.141732283h 0.141732283h 0.141732283h 0.141732283h 0.141732283h 0.141732283h 0.141732283h 0.141732283h 0.141732283h 0.141732283h 0.141732283h 0.141732283h 0.141732283h 0.141732283h 0.141732283h 0.141732283h 0.141732283h 0.141732283h 0.141732283h 0.141732283h 0.141732283h 0.141732283h 0.141732283h 0.141732283h 0.141732283h 0.141732283h 0.141732283h 0.141732283h 0.141732283h 0.141732283h 0.141732283h 0.141732283h 0.141732283h 0.141732283h 0.141732283h 0.141732283h 0.141732283h 0.141732283h 0.141732283h 0.141732283h 0.141732283h 0.141732283h 0.141732283h 0.141732283h 0.141732283h 0.141732283h 0.141732283h 0.141732283h 0.141732283h 0.141732283h 0.141732283h 0.141732283h 0.141732283h 0.141732283h 0.141732283h 0.141732283h 0.141732283h 0.141732283h 0.141732283h 0.141732283h 0.141732283h 0.141732283h 0.141732283h 0.141732283h 0.141732283h 0.141732283h 0.141732283h 0.141732283h 0.141732283h 0.141732283h 0.141732283h 0.141732283h 0.141732283h 0.141732283h 0.141732283h 0.141732283h 0.141732283h 0.141732283h 0.141732283h 0.141732283h 0.141732283h 0.141732283h 0.141732283h 0.141732283h 0.141732283h 0.141732283h 0.141732283h 0.141732283h 0.141732283h 0.141732283h 0.141732283h 0.141732283h 0.141732283h 0.141732283h 0.141732283h 0.141732283h 0.141732283h 0.141732283h 0.141732283h 0.141732283h 0.141732283h 0.141732283h 0.141732283h 0.141732283h 0.141732283h 0.141732283h 0.141732283h 0.141732283h 0.141732283h 0.141732283h 0.141732283h 0.141732283h 0.141732283h 0.141732283h 0.141732283h 0.141732283h 0.141732283h 0.141732283h 0.141732283h 0.141732283h 0.141732283h 0.141732283h 0.141732283h 0.141732283h 0.141732283h 0.141732283h 0.141732283h 0.141732283h 0.141732283h 0.141732283h 0.141732283h 0.141732283h 0.141732283h 0.141732283h 0.141732283h 0.141732283h 0.141732283h 0.141732283h 0.141732283h 0.141732283h 0.141732283h 0.141732283h 0.141732283h 0.141732283h 0.141732283h 0.141732283h 0.141732283h 0.141732283h 0.141732283"/></g><g transform="translate(8.503937008 84.204724409)"><g transform="matrix(1 0 0 -1 104.370217012 5.598632813)"><use xlink:href="#gE6AEF7F8E78843AB2E34338444094448" x="0" y="0" fill="#0f2744" fill-rule="nonzero"/><use xlink:href="#g74DC5E5D2DEC21401C7327448FB28690" x="4.45703125" y="0" fill="#0f2744" fill-rule="nonzero"/></g><g transform="matrix(1 0 0 -1 83.544533418 5.598632813)"><use xlink:href="#g5945D8D3981DAB6FB5E168757FEFF985" x="1.879882813" y="0" fill="#0f2744" fill-rule="nonzero"/><use xlink:href="#g940732E1A19CB240F5D44E087077D35D" x="5.509765625" y="0" fill="#0f2744" fill-rule="nonzero"/><use xlink:href="#gA17BBBBB9770D6A2959E0BDD5179586A" x="10.19921875" y="0" fill="#0f2744" fill-rule="nonzero"/><use xlink:href="#g5B36F44985E07A477A0C6293426340D2" x="13.312988281" y="0" fill="#0f2744" fill-rule="nonzero"/><use xlink:href="#g760BB0C255F272EAE008916E23157270" x="18.925292969" y="0" fill="#0f2744" fill-rule="nonzero"/></g><g transform="matrix(1 0 0 -1 79.231056856 5.598632813)"><use xlink:href="#gFED8E7EC74EC66427E41A5CAD956FD92" x="0" y="0" fill="#0f2744" fill-rule="nonzero"/></g><g transform="matrix(1 0 0 -1 62.708595918 5.598632813)"><use xlink:href="#gDF93E0F9554355D044FC3630947CA182" x="0" y="0" fill="#0f2744" fill-rule="nonzero"/><use xlink:href="#g894AAD991E8428FABE7D661E5A7BEE3A" x="4.272460938" y="0" fill="#0f2744" fill-rule="nonzero"/><use xlink:href="#g2F8128769BB45041D08923FAFA257B28" x="7.994628906" y="0" fill="#0f2744" fill-rule="nonzero"/><use xlink:href="#gD3EB82B8176676062DE0AE27B9B78F8E" x="10.353027344" y="0" fill="#0f2744" fill-rule="nonzero"/><use xlink:href="#gA3F4BEDEC15A2276991CACC51C354F9F" x="12.578125" y="0" fill="#0f2744" fill-rule="nonzero"/></g><g transform="matrix(1 0 0 -1 46.8184592 5.598632813)"><use xlink:href="#gFED8E7EC74EC66427E41A5CAD956FD92" x="0" y="0" fill="#0f2744" fill-rule="nonzero"/><use xlink:href="#gFABFA51790B342FFC1DD475E8783B587" x="6.193359375" y="0" fill="#0f2744" fill-rule="nonzero"/><use xlink:href="#gCAAAAAA37619B868A86E9DBBCD1A54CC" x="11.733886719" y="0" fill="#0f2744" fill-rule="nonzero"/></g><g transform="matrix(1 0 0 -1 40.645607637 5.598632813)"><use xlink:href="#gA8BF346C8F7E12EEE0A450BAF31597D1" x="1.879882813" y="0" fill="#0f2744" fill-rule="nonzero"/><use xlink:href="#g67A5D356F59D6CB7B21741944263AA19" x="3.780273438" y="0" fill="#0f2744" fill-rule="nonzero"/></g><g transform="matrix(1 0 0 -1 32.312599825 5.598632813)"><use xlink:href="#gCAAAAAA37619B868A86E9DBBCD1A54CC" x="0" y="0" fill="#0f2744" fill-rule="nonzero"/><use xlink:href="#g76C85B7E432B981CB1DC07BC05984E27" x="4.15625" y="0" fill="#0f2744" fill-rule="nonzero"/></g><g transform="matrix(1 0 0 -1 22.208482637 5.598632813)"><use xlink:href="#g41B5242DBADFFF45A97DD98DEBF6D213" x="1.879882813" y="0" fill="#0f2744" fill-rule="nonzero"/></g><g transform="matrix(1 0 0 -1 29.078599825 5.598632813)"><use xlink:href="#g22284E4C5B121D182B850EFAC21AC998" x="0" y="0" fill="#0f2744" fill-rule="nonzero"/></g><g transform="matrix(1 0 0 -1 18.031724825 5.598632813)"><use xlink:href="#g76C85B7E432B981CB1DC07BC05984E27" x="0" y="0" fill="#0f2744" fill-rule="nonzero"/></g><g transform="matrix(1 0 0 -1 14.797724825 5.598632813)"><use xlink:href="#g22284E4C5B121D182B850EFAC21AC998" x="0" y="0" fill="#0f2744" fill-rule="nonzero"/></g></g><path fill="none" stroke="#eea7a7" stroke-width="0.4" stroke-linecap="butt" stroke-linejoin="miter" stroke-miterlimit="4" transform="translate(147.401574803 8.503937008)" d="M 0 0v 73.700787402h 70.866141732v -73.700787402Z "/><g transform="translate(147.401574803 8.503937008)" clip-path="url(#cEC11E5AD5DBA531A56E990C7A2E7581)"><path fill="none" stroke="#eea7a7" stroke-width="0.45" stroke-linecap="butt" stroke-linejoin="miter" stroke-miterlimit="4" d="M 0 0v 73.700787402"/><path fill="none" stroke="#f9dcdc" stroke-width="0.18" stroke-linecap="butt" stroke-linejoin="miter" stroke-miterlimit="4" transform="translate(2.834645669)" d="M 0 0v 73.700787402"/><path fill="none" stroke="#f9dcdc" stroke-width="0.18" stroke-linecap="butt" stroke-linejoin="miter" stroke-miterlimit="4" transform="translate(5.669291339)" d="M 0 0v 73.700787402"/><path fill="none" stroke="#f9dcdc" stroke-width="0.18" stroke-linecap="butt" stroke-linejoin="miter" stroke-miterlimit="4" transform="translate(8.503937008)" d="M 0 0v 73.700787402"/><path fill="none" stroke="#f9dcdc" stroke-width="0.18" stroke-linecap="butt" stroke-linejoin="miter" stroke-miterlimit="4" transform="translate(11.338582677)" d="M 0 0v 73.700787402"/><path fill="none" stroke="#eea7a7" stroke-width="0.45" stroke-linecap="butt" stroke-linejoin="miter" stroke-miterlimit="4" transform="translate(14.173228346)" d="M 0 0v 73.700787402"/><path fill="none" stroke="#f9dcdc" stroke-width="0.18" stroke-linecap="butt" stroke-linejoin="miter" stroke-miterlimit="4" transform="translate(17.007874016)" d="M 0 0v 73.700787402"/><path fill="none" stroke="#f9dcdc" stroke-width="0.18" stroke-linecap="butt" stroke-linejoin="miter" stroke-miterlimit="4" transform="translate(19.842519685)" d="M 0 0v 73.700787402"/><path fill="none" stroke="#f9dcdc" stroke-width="0.18" stroke-linecap="butt" stroke-linejoin="miter" stroke-miterlimit="4" transform="translate(22.677165354)" d="M 0 0v 73.700787402"/><path fill="none" stroke="#f9dcdc" stroke-width="0.18" stroke-linecap="butt" stroke-linejoin="miter" stroke-miterlimit="4" transform="translate(25.511811024)" d="M 0 0v 73.700787402"/><path fill="none" stroke="#eea7a7" stroke-width="0.45" stroke-linecap="butt" stroke-linejoin="miter" stroke-miterlimit="4" transform="translate(28.346456693)" d="M 0 0v 73.700787402"/><path fill="none" stroke="#f9dcdc" stroke-width="0.18" stroke-linecap="butt" stroke-linejoin="miter" stroke-miterlimit="4" transform="translate(31.181102362)" d="M 0 0v 73.700787402"/><path fill="none" stroke="#f9dcdc" stroke-width="0.18" stroke-linecap="butt" stroke-linejoin="miter" stroke-miterlimit="4" transform="translate(34.015748031)" d="M 0 0v 73.700787402"/><path fill="none" stroke="#f9dcdc" stroke-width="0.18" stroke-linecap="butt" stroke-linejoin="miter" stroke-miterlimit="4" transform="translate(36.850393701)" d="M 0 0v 73.700787402"/><path fill="none" stroke="#f9dcdc" stroke-width="0.18" stroke-linecap="butt" stroke-linejoin="miter" stroke-miterlimit="4" transform="translate(39.68503937)" d="M 0 0v 73.700787402"/><path fill="none" stroke="#eea7a7" stroke-width="0.45" stroke-linecap="butt" stroke-linejoin="miter" stroke-miterlimit="4" transform="translate(42.519685039)" d="M 0 0v 73.700787402"/><path fill="none" stroke="#f9dcdc" stroke-width="0.18" stroke-linecap="butt" stroke-linejoin="miter" stroke-miterlimit="4" transform="translate(45.354330709)" d="M 0 0v 73.700787402"/><path fill="none" stroke="#f9dcdc" stroke-width="0.18" stroke-linecap="butt" stroke-linejoin="miter" stroke-miterlimit="4" transform="translate(48.188976378)" d="M 0 0v 73.700787402"/><path fill="none" stroke="#f9dcdc" stroke-width="0.18" stroke-linecap="butt" stroke-linejoin="miter" stroke-miterlimit="4" transform="translate(51.023622047)" d="M 0 0v 73.700787402"/><path fill="none" stroke="#f9dcdc" stroke-width="0.18" stroke-linecap="butt" stroke-linejoin="miter" stroke-miterlimit="4" transform="translate(53.858267717)" d="M 0 0v 73.700787402"/><path fill="none" stroke="#eea7a7" stroke-width="0.45" stroke-linecap="butt" stroke-linejoin="miter" stroke-miterlimit="4" transform="translate(56.692913386)" d="M 0 0v 73.700787402"/><path fill="none" stroke="#f9dcdc" stroke-width="0.18" stroke-linecap="butt" stroke-linejoin="miter" stroke-miterlimit="4" transform="translate(59.527559055)" d="M 0 0v 73.700787402"/><path fill="none" stroke="#f9dcdc" stroke-width="0.18" stroke-linecap="butt" stroke-linejoin="miter" stroke-miterlimit="4" transform="translate(62.362204724)" d="M 0 0v 73.700787402"/><path fill="none" stroke="#f9dcdc" stroke-width="0.18" stroke-linecap="butt" stroke-linejoin="miter" stroke-miterlimit="4" transform="translate(65.196850394)" d="M 0 0v 73.700787402"/><path fill="none" stroke="#f9dcdc" stroke-width="0.18" stroke-linecap="butt" stroke-linejoin="miter" stroke-miterlimit="4" transform="translate(68.031496063)" d="M 0 0v 73.700787402"/><path fill="none" stroke="#eea7a7" stroke-width="0.45" stroke-linecap="butt" stroke-linejoin="miter" stroke-miterlimit="4" transform="translate(70.866141732)" d="M 0 0v 73.700787402"/><path fill="none" stroke="#eea7a7" stroke-width="0.45" stroke-linecap="butt" stroke-linejoin="miter" stroke-miterlimit="4" d="M 0 0h 70.866141732"/><path fill="none" stroke="#f9dcdc" stroke-width="0.18" stroke-linecap="butt" stroke-linejoin="miter" stroke-miterlimit="4" transform="translate(0 2.834645669)" d="M 0 0h 70.866141732"/><path fill="none" stroke="#f9dcdc" stroke-width="0.18" stroke-linecap="butt" stroke-linejoin="miter" stroke-miterlimit="4" transform="translate(0 5.669291339)" d="M 0 0h 70.866141732"/><path fill="none" stroke="#f9dcdc" stroke-width="0.18" stroke-linecap="butt" stroke-linejoin="miter" stroke-miterlimit="4" transform="translate(0 8.503937008)" d="M 0 0h 70.866141732"/><path fill="none" stroke="#f9dcdc" stroke-width="0.18" stroke-linecap="butt" stroke-linejoin="miter" stroke-miterlimit="4" transform="translate(0 11.338582677)" d="M 0 0h 70.866141732"/><path fill="none" stroke="#eea7a7" stroke-width="0.45" stroke-linecap="butt" stroke-linejoin="miter" stroke-miterlimit="4" transform="translate(0 14.173228346)" d="M 0 0h 70.866141732"/><path fill="none" stroke="#f9dcdc" stroke-width="0.18" stroke-linecap="butt" stroke-linejoin="miter" stroke-miterlimit="4" transform="translate(0 17.007874016)" d="M 0 0h 70.866141732"/><path fill="none" stroke="#f9dcdc" stroke-width="0.18" stroke-linecap="butt" stroke-linejoin="miter" stroke-miterlimit="4" transform="translate(0 19.842519685)" d="M 0 0h 70.866141732"/><path fill="none" stroke="#f9dcdc" stroke-width="0.18" stroke-linecap="butt" stroke-linejoin="miter" stroke-miterlimit="4" transform="translate(0 22.677165354)" d="M 0 0h 70.866141732"/><path fill="none" stroke="#f9dcdc" stroke-width="0.18" stroke-linecap="butt" stroke-linejoin="miter" stroke-miterlimit="4" transform="translate(0 25.511811024)" d="M 0 0h 70.866141732"/><path fill="none" stroke="#eea7a7" stroke-width="0.45" stroke-linecap="butt" stroke-linejoin="miter" stroke-miterlimit="4" transform="translate(0 28.346456693)" d="M 0 0h 70.866141732"/><path fill="none" stroke="#f9dcdc" stroke-width="0.18" stroke-linecap="butt" stroke-linejoin="miter" stroke-miterlimit="4" transform="translate(0 31.181102362)" d="M 0 0h 70.866141732"/><path fill="none" stroke="#f9dcdc" stroke-width="0.18" stroke-linecap="butt" stroke-linejoin="miter" stroke-miterlimit="4" transform="translate(0 34.015748031)" d="M 0 0h 70.866141732"/><path fill="none" stroke="#f9dcdc" stroke-width="0.18" stroke-linecap="butt" stroke-linejoin="miter" stroke-miterlimit="4" transform="translate(0 36.850393701)" d="M 0 0h 70.866141732"/><path fill="none" stroke="#f9dcdc" stroke-width="0.18" stroke-linecap="butt" stroke-linejoin="miter" stroke-miterlimit="4" transform="translate(0 39.68503937)" d="M 0 0h 70.866141732"/><path fill="none" stroke="#eea7a7" stroke-width="0.45" stroke-linecap="butt" stroke-linejoin="miter" stroke-miterlimit="4" transform="translate(0 42.519685039)" d="M 0 0h 70.866141732"/><path fill="none" stroke="#f9dcdc" stroke-width="0.18" stroke-linecap="butt" stroke-linejoin="miter" stroke-miterlimit="4" transform="translate(0 45.354330709)" d="M 0 0h 70.866141732"/><path fill="none" stroke="#f9dcdc" stroke-width="0.18" stroke-linecap="butt" stroke-linejoin="miter" stroke-miterlimit="4" transform="translate(0 48.188976378)" d="M 0 0h 70.866141732"/><path fill="none" stroke="#f9dcdc" stroke-width="0.18" stroke-linecap="butt" stroke-linejoin="miter" stroke-miterlimit="4" transform="translate(0 51.023622047)" d="M 0 0h 70.866141732"/><path fill="none" stroke="#f9dcdc" stroke-width="0.18" stroke-linecap="butt" stroke-linejoin="miter" stroke-miterlimit="4" transform="translate(0 53.858267717)" d="M 0 0h 70.866141732"/><path fill="none" stroke="#eea7a7" stroke-width="0.45" stroke-linecap="butt" stroke-linejoin="miter" stroke-miterlimit="4" transform="translate(0 56.692913386)" d="M 0 0h 70.866141732"/><path fill="none" stroke="#f9dcdc" stroke-width="0.18" stroke-linecap="butt" stroke-linejoin="miter" stroke-miterlimit="4" transform="translate(0 59.527559055)" d="M 0 0h 70.866141732"/><path fill="none" stroke="#f9dcdc" stroke-width="0.18" stroke-linecap="butt" stroke-linejoin="miter" stroke-miterlimit="4" transform="translate(0 62.362204724)" d="M 0 0h 70.866141732"/><path fill="none" stroke="#f9dcdc" stroke-width="0.18" stroke-linecap="butt" stroke-linejoin="miter" stroke-miterlimit="4" transform="translate(0 65.196850394)" d="M 0 0h 70.866141732"/><path fill="none" stroke="#f9dcdc" stroke-width="0.18" stroke-linecap="butt" stroke-linejoin="miter" stroke-miterlimit="4" transform="translate(0 68.031496063)" d="M 0 0h 70.866141732"/><path fill="none" stroke="#eea7a7" stroke-width="0.45" stroke-linecap="butt" stroke-linejoin="miter" stroke-miterlimit="4" transform="translate(0 70.866141732)" d="M 0 0h 70.866141732"/><path fill="none" stroke="#f9dcdc" stroke-width="0.18" stroke-linecap="butt" stroke-linejoin="miter" stroke-miterlimit="4" transform="translate(0 73.700787402)" d="M 0 0h 70.866141732"/><path fill="none" stroke="#000000" stroke-width="0.85" stroke-linecap="butt" stroke-linejoin="round" stroke-miterlimit="4" d="M 0 0m 0 45.354330709h 0.141732283h 0.141732283h 0.141732283h 0.141732283h 0.141732283h 0.141732283h 0.141732283h 0.141732283h 0.141732283h 0.141732283h 0.141732283h 0.141732283h 0.141732283h 0.141732283h 0.141732283h 0.141732283h 0.141732283h 0.141732283h 0.141732283h 0.141732283h 0.141732283h 0.141732283h 0.141732283h 0.141732283h 0.141732283h 0.141732283h 0.141732283h 0.141732283h 0.141732283h 0.141732283h 0.141732283h 0.141732283h 0.141732283h 0.141732283h 0.141732283h 0.141732283h 0.141732283h 0.141732283h 0.141732283h 0.141732283h 0.141732283h 0.141732283h 0.141732283h 0.141732283h 0.141732283h 0.141732283h 0.141732283h 0.141732283h 0.141732283h 0.141732283h 0.141732283h 0.141732283l 0.141732283 -0.028346457h 0.141732283h 0.141732283h 0.141732283h 0.141732283l 0.141732283 -0.028346457h 0.141732283l 0.141732283 -0.028346457l 0.141732283 -0.028346457l 0.141732283 -0.028346457l 0.141732283 -0.028346457l 0.141732283 -0.028346457l 0.141732283 -0.028346457l 0.141732283 -0.056692913l 0.141732283 -0.056692913l 0.141732283 -0.08503937l 0.141732283 -0.056692913l 0.141732283 -0.08503937l 0.141732283 -0.113385827l 0.141732283 -0.113385827l 0.141732283 -0.113385827l 0.141732283 -0.141732283l 0.141732283 -0.141732283l 0.141732283 -0.141732283l 0.141732283 -0.17007874l 0.141732283 -0.17007874l 0.141732283 -0.198425197l 0.141732283 -0.198425197l 0.141732283 -0.198425197l 0.141732283 -0.198425197l 0.141732283 -0.226771654l 0.141732283 -0.198425197l 0.141732283 -0.198425197l 0.141732283 -0.198425197l 0.141732283 -0.17007874l 0.141732283 -0.17007874l 0.141732283 -0.17007874l 0.141732283 -0.113385827l 0.141732283 -0.141732283l 0.141732283 -0.08503937l 0.141732283 -0.056692913l 0.141732283 -0.056692913h 0.141732283h 0.141732283l 0.141732283 0.056692913l 0.141732283 0.056692913l 0.141732283 0.08503937l 0.141732283 0.141732283l 0.141732283 0.113385827l 0.141732283 0.17007874l 0.141732283 0.17007874l 0.141732283 0.17007874l 0.141732283 0.198425197l 0.141732283 0.198425197l 0.141732283 0.198425197l 0.141732283 0.226771654l 0.141732283 0.198425197l 0.141732283 0.198425197l 0.141732283 0.198425197l 0.141732283 0.198425197l 0.141732283 0.17007874l 0.141732283 0.17007874l 0.141732283 0.141732283l 0.141732283 0.141732283l 0.141732283 0.141732283l 0.141732283 0.113385827l 0.141732283 0.113385827l 0.141732283 0.113385827l 0.141732283 0.08503937l 0.141732283 0.056692913l 0.141732283 0.08503937l 0.141732283 0.056692913l 0.141732283 0.056692913l 0.141732283 0.028346457l 0.141732283 0.028346457l 0.141732283 0.028346457l 0.141732283 0.028346457l 0.141732283 0.028346457l 0.141732283 0.028346457h 0.141732283l 0.141732283 0.028346457h 0.141732283h 0.141732283h 0.141732283h 0.141732283l 0.141732283 0.028346457h 0.141732283h 0.141732283h 0.141732283h 0.141732283h 0.141732283l 0.141732283 0.028346457l 0.141732283 0.028346457l 0.141732283 0.028346457l 0.141732283 0.056692913l 0.141732283 0.113385827l 0.141732283 0.113385827l 0.141732283 0.17007874l 0.141732283 0.141732283l 0.141732283 0.113385827l 0.141732283 -0.056692913l 0.141732283 -0.283464567l 0.141732283 -0.623622047l 0.141732283 -1.077165354l 0.141732283 -1.587401575l 0.141732283 -2.182677165l 0.141732283 -2.721259843l 0.141732283 -3.203149606l 0.141732283 -3.51496063l 0.141732283 -3.713385827l 0.141732283 -3.628346457l 0.141732283 -3.316535433l 0.141732283 -2.749606299l 0.141732283 -1.927559055l 0.141732283 -0.963779528l 0.141732283 0.113385827l 0.141732283 1.247244094l 0.141732283 2.239370079l 0.141732283 3.08976378l 0.141732283 3.713385827l 0.141732283 4.081889764l 0.141732283 4.195275591l 0.141732283 4.053543307l 0.141732283 3.713385827l 0.141732283 3.203149606l 0.141732283 2.607874016l 0.141732283 1.927559055l 0.141732283 1.275590551l 0.141732283 0.680314961l 0.141732283 0.17007874l 0.141732283 -0.25511811l 0.141732283 -0.51023622l 0.141732283 -0.708661417l 0.141732283 -0.765354331l 0.141732283 -0.737007874l 0.141732283 -0.680314961l 0.141732283 -0.538582677l 0.141732283 -0.453543307l 0.141732283 -0.311811024l 0.141732283 -0.25511811l 0.141732283 -0.17007874l 0.141732283 -0.08503937l 0.141732283 -0.08503937l 0.141732283 -0.028346457l 0.141732283 -0.028346457l 0.141732283 -0.028346457l 0.141732283 -0.028346457h 0.141732283l 0.141732283 -0.028346457h 0.141732283l 0.141732283 -0.028346457l 0.141732283 -0.028346457h 0.141732283l 0.141732283 -0.028346457l 0.141732283 -0.028346457l 0.141732283 -0.028346457l 0.141732283 -0.028346457l 0.141732283 -0.028346457l 0.141732283 -0.028346457l 0.141732283 -0.028346457l 0.141732283 -0.028346457l 0.141732283 -0.056692913l 0.141732283 -0.028346457l 0.141732283 -0.056692913l 0.141732283 -0.056692913l 0.141732283 -0.056692913l 0.141732283 -0.056692913l 0.141732283 -0.056692913l 0.141732283 -0.056692913l 0.141732283 -0.056692913l 0.141732283 -0.08503937l 0.141732283 -0.08503937l 0.141732283 -0.08503937l 0.141732283 -0.08503937l 0.141732283 -0.08503937l 0.141732283 -0.08503937l 0.141732283 -0.113385827l 0.141732283 -0.08503937l 0.141732283 -0.113385827l 0.141732283 -0.113385827l 0.141732283 -0.141732283l 0.141732283 -0.113385827l 0.141732283 -0.141732283l 0.141732283 -0.113385827l 0.141732283 -0.141732283l 0.141732283 -0.141732283l 0.141732283 -0.17007874l 0.141732283 -0.141732283l 0.141732283 -0.17007874l 0.141732283 -0.141732283l 0.141732283 -0.17007874l 0.141732283 -0.17007874l 0.141732283 -0.17007874l 0.141732283 -0.198425197l 0.141732283 -0.17007874l 0.141732283 -0.17007874l 0.141732283 -0.198425197l 0.141732283 -0.17007874l 0.141732283 -0.198425197l 0.141732283 -0.198425197l 0.141732283 -0.17007874l 0.141732283 -0.198425197l 0.141732283 -0.17007874l 0.141732283 -0.198425197l 0.141732283 -0.17007874l 0.141732283 -0.198425197l 0.141732283 -0.17007874l 0.141732283 -0.17007874l 0.141732283 -0.17007874l 0.141732283 -0.17007874l 0.141732283 -0.17007874l 0.141732283 -0.141732283l 0.141732283 -0.17007874l 0.141732283 -0.141732283l 0.141732283 -0.113385827l 0.141732283 -0.141732283l 0.141732283 -0.113385827l 0.141732283 -0.113385827l 0.141732283 -0.08503937l 0.141732283 -0.113385827l 0.141732283 -0.056692913l 0.141732283 -0.08503937l 0.141732283 -0.056692913l 0.141732283 -0.056692913l 0.141732283 -0.028346457l 0.141732283 -0.028346457l 0.141732283 -0.028346457h 0.141732283h 0.141732283l 0.141732283 0.028346457l 0.141732283 0.028346457l 0.141732283 0.028346457l 0.141732283 0.056692913l 0.141732283 0.056692913l 0.141732283 0.08503937l 0.141732283 0.056692913l 0.141732283 0.113385827l 0.141732283 0.08503937l 0.141732283 0.113385827l 0.141732283 0.113385827l 0.141732283 0.141732283l 0.141732283 0.113385827l 0.141732283 0.141732283l 0.141732283 0.17007874l 0.141732283 0.141732283l 0.141732283 0.17007874l 0.141732283 0.17007874l 0.141732283 0.17007874l 0.141732283 0.17007874l 0.141732283 0.17007874l 0.141732283 0.198425197l 0.141732283 0.17007874l 0.141732283 0.198425197l 0.141732283 0.17007874l 0.141732283 0.198425197l 0.141732283 0.17007874l 0.141732283 0.198425197l 0.141732283 0.198425197l 0.141732283 0.17007874l 0.141732283 0.198425197l 0.141732283 0.17007874l 0.141732283 0.17007874l 0.141732283 0.198425197l 0.141732283 0.17007874l 0.141732283 0.17007874l 0.141732283 0.17007874l 0.141732283 0.141732283l 0.141732283 0.17007874l 0.141732283 0.141732283l 0.141732283 0.17007874l 0.141732283 0.141732283l 0.141732283 0.141732283l 0.141732283 0.113385827l 0.141732283 0.141732283l 0.141732283 0.113385827l 0.141732283 0.141732283l 0.141732283 0.113385827l 0.141732283 0.113385827l 0.141732283 0.08503937l 0.141732283 0.113385827l 0.141732283 0.08503937l 0.141732283 0.08503937l 0.141732283 0.08503937l 0.141732283 0.08503937l 0.141732283 0.08503937l 0.141732283 0.08503937l 0.141732283 0.056692913l 0.141732283 0.056692913l 0.141732283 0.056692913l 0.141732283 0.056692913l 0.141732283 0.056692913l 0.141732283 0.056692913l 0.141732283 0.056692913l 0.141732283 0.028346457l 0.141732283 0.056692913l 0.141732283 0.028346457l 0.141732283 0.028346457l 0.141732283 0.028346457l 0.141732283 0.028346457l 0.141732283 0.028346457l 0.141732283 0.028346457l 0.141732283 0.028346457l 0.141732283 0.028346457h 0.141732283l 0.141732283 0.028346457l 0.141732283 0.028346457h 0.141732283l 0.141732283 0.028346457h 0.141732283h 0.141732283l 0.141732283 0.028346457h 0.141732283h 0.141732283l 0.141732283 0.028346457h 0.141732283h 0.141732283h 0.141732283l 0.141732283 0.028346457h 0.141732283h 0.141732283h 0.141732283h 0.141732283h 0.141732283h 0.141732283h 0.141732283h 0.141732283l 0.141732283 0.028346457h 0.141732283h 0.141732283h 0.141732283h 0.141732283h 0.141732283h 0.141732283h 0.141732283h 0.141732283h 0.141732283h 0.141732283h 0.141732283h 0.141732283h 0.141732283h 0.141732283h 0.141732283h 0.141732283h 0.141732283h 0.141732283h 0.141732283h 0.141732283h 0.141732283h 0.141732283h 0.141732283h 0.141732283h 0.141732283h 0.141732283h 0.141732283h 0.141732283h 0.141732283h 0.141732283h 0.141732283h 0.141732283h 0.141732283h 0.141732283h 0.141732283h 0.141732283h 0.141732283h 0.141732283h 0.141732283h 0.141732283h 0.141732283h 0.141732283h 0.141732283h 0.141732283h 0.141732283h 0.141732283h 0.141732283h 0.141732283h 0.141732283h 0.141732283h 0.141732283h 0.141732283h 0.141732283h 0.141732283h 0.141732283h 0.141732283h 0.141732283h 0.141732283h 0.141732283h 0.141732283h 0.141732283h 0.141732283h 0.141732283h 0.141732283h 0.141732283h 0.141732283h 0.141732283h 0.141732283h 0.141732283h 0.141732283h 0.141732283h 0.141732283h 0.141732283h 0.141732283h 0.141732283h 0.141732283h 0.141732283h 0.141732283h 0.141732283h 0.141732283h 0.141732283h 0.141732283h 0.141732283h 0.141732283h 0.141732283h 0.141732283h 0.141732283h 0.141732283h 0.141732283h 0.141732283h 0.141732283h 0.141732283h 0.141732283h 0.141732283h 0.141732283h 0.141732283h 0.141732283h 0.141732283h 0.141732283h 0.141732283h 0.141732283h 0.141732283h 0.141732283h 0.141732283h 0.141732283h 0.141732283h 0.141732283h 0.141732283h 0.141732283h 0.141732283h 0.141732283h 0.141732283h 0.141732283h 0.141732283h 0.141732283h 0.141732283h 0.141732283h 0.141732283h 0.141732283h 0.141732283h 0.141732283"/></g><g transform="translate(147.401574803 84.204724409)"><g transform="matrix(1 0 0 -1 54.894984929 5.598632813)"><use xlink:href="#gE6AEF7F8E78843AB2E34338444094448" x="0" y="0" fill="#0f2744" fill-rule="nonzero"/><use xlink:href="#gB86C469C8CAE9CA4E45024F268618203" x="4.45703125" y="0" fill="#0f2744" fill-rule="nonzero"/></g><g transform="matrix(1 0 0 -1 34.069301335 5.598632813)"><use xlink:href="#g5945D8D3981DAB6FB5E168757FEFF985" x="1.879882813" y="0" fill="#0f2744" fill-rule="nonzero"/><use xlink:href="#g940732E1A19CB240F5D44E087077D35D" x="5.509765625" y="0" fill="#0f2744" fill-rule="nonzero"/><use xlink:href="#gA17BBBBB9770D6A2959E0BDD5179586A" x="10.19921875" y="0" fill="#0f2744" fill-rule="nonzero"/><use xlink:href="#g5B36F44985E07A477A0C6293426340D2" x="13.312988281" y="0" fill="#0f2744" fill-rule="nonzero"/><use xlink:href="#g760BB0C255F272EAE008916E23157270" x="18.925292969" y="0" fill="#0f2744" fill-rule="nonzero"/></g><g transform="matrix(1 0 0 -1 29.913051335 5.598632813)"><use xlink:href="#gCAAAAAA37619B868A86E9DBBCD1A54CC" x="0" y="0" fill="#0f2744" fill-rule="nonzero"/></g><g transform="matrix(1 0 0 -1 7.580043522 5.598632813)"><use xlink:href="#gB1D0B6E001F1D2CF6CD84E326E1EFFC1" x="0" y="0" fill="#0f2744" fill-rule="nonzero"/><use xlink:href="#gD90665CD7E8D0EEC49B790D249344585" x="2.703613281" y="0" fill="#0f2744" fill-rule="nonzero"/><use xlink:href="#g8A766D82CCA86BDB76D98B5F722E0C65" x="4.850097656" y="0" fill="#0f2744" fill-rule="nonzero"/><use xlink:href="#g74DAFBADB601DAC726CAFB94A72C6263" x="9.666015625" y="0" fill="#0f2744" fill-rule="nonzero"/><use xlink:href="#g649D60E15C7D59851FB00A270816D67" x="12.790039063" y="0" fill="#0f2744" fill-rule="nonzero"/><use xlink:href="#g3872725F164D3E2F2EF4D4DE6E1D222" x="16.802734375" y="0" fill="#0f2744" fill-rule="nonzero"/></g></g><defs><symbol id="gE6AEF7F8E78843AB2E34338444094448" overflow="visible"><path d="M 0 0m 0.813476563 4.9765625l 1.411621094 -4.1015625l 1.425292969 4.1015625h 0.714355469l -1.842285156 -4.9765625h -0.584472656l -1.838867188 4.9765625h 0.714355469Z "/></symbol><symbol id="g74DC5E5D2DEC21401C7327448FB28690" overflow="visible"><path d="M 0 0m 2.491699219 5.00390625v -5.00390625h -0.632324219v 4.214355469l -1.274902344 -0.46484375v 0.570800781l 1.808105469 0.68359375h 0.099121094Z "/></symbol><symbol id="g5945D8D3981DAB6FB5E168757FEFF985" overflow="visible"><path d="M 0 0m 3.578613281 0q -0.502441406 0 -0.781005859 0.235839844q -0.278564453 0.235839844 -0.360595703 0.649414063q -0.198242188 -0.198242188 -0.428955078 -0.304199219q -0.230712891 -0.105957031 -0.517822266 -0.105957031q -0.488769531 0 -0.8203125 0.263183594q -0.331542969 0.263183594 -0.331542969 0.728027344q 0 0.526367188 0.430664063 0.910888672q 0.430664063 0.384521484 1.353515625 0.668212891l -0.023925781 0.1640625l 0.546875 0.109375l 0.297363281 -2.098632813q 0.041015625 -0.30078125 0.196533203 -0.449462891q 0.155517578 -0.148681641 0.452880859 -0.148681641h 0.105957031v -0.622070313h -0.119628906Z m -1.278320313 1.719238281q 0 0.105957031 -0.013671875 0.201660156l -0.085449219 0.570800781q -0.663085938 -0.239257813 -0.965576172 -0.471679688q -0.302490234 -0.232421875 -0.302490234 -0.509277344q 0 -0.225585938 0.153808594 -0.341796875q 0.153808594 -0.116210938 0.416992188 -0.116210938q 0.201660156 0 0.384521484 0.078613281q 0.182861328 0.078613281 0.297363281 0.229003906q 0.114501953 0.150390625 0.114501953 0.358886719Z "/></symbol><symbol id="g940732E1A19CB240F5D44E087077D35D" overflow="visible"><path d="M 0 0m 2.276367188 -0.522949219l 0.495605469 -0.495605469l -0.495605469 -0.495605469l -0.495605469 0.495605469l 0.495605469 0.495605469Z m -2.344726563 1.145019531h 0.581054688q 0.399902344 0 0.734863281 0.071777344q 0.334960938 0.071777344 0.654541016 0.198242188q 0.319580078 0.126464844 0.669921875 0.299072266q 0.350341797 0.172607422 0.784423828 0.370849609q -0.242675781 0.088867188 -0.502441406 0.193115234q -0.259765625 0.104248047 -0.493896484 0.196533203q -0.234130859 0.092285156 -0.408447266 0.152099609q -0.174316406 0.059814453 -0.24609375 0.059814453q -0.208496094 0 -0.367431641 -0.121337891q -0.158935547 -0.121337891 -0.292236328 -0.292236328l -0.092285156 -0.116210938l -0.522949219 0.256347656l 0.051269531 0.08203125q 0.225585938 0.365722656 0.524658203 0.586181641q 0.299072266 0.220458984 0.702392578 0.220458984q 0.167480469 0 0.405029297 -0.085449219q 0.237548828 -0.085449219 0.517822266 -0.213623047q 0.280273438 -0.128173828 0.581054688 -0.259765625q 0.30078125 -0.131591797 0.6015625 -0.222167969q 0.30078125 -0.090576172 0.57421875 -0.100830078v -0.591308594q -0.21875 -0.023925781 -0.558837891 -0.158935547q -0.340087891 -0.135009766 -0.883544922 -0.422119141q -0.4375 -0.232421875 -0.811767578 -0.394775391q -0.374267578 -0.162353516 -0.762207031 -0.24609375q -0.387939453 -0.083740234 -0.869873047 -0.083740234h -0.570800781v 0.622070313Z "/></symbol><symbol id="gA17BBBBB9770D6A2959E0BDD5179586A" overflow="visible"><path d="M 0 0m 1.490234375 2.498535156q 0.533203125 0 0.898925781 -0.476806641q 0.365722656 -0.476806641 0.379394531 -1.399658203h 0.413574219v -0.622070313h -0.468261719q -0.075195313 -0.393066406 -0.299072266 -0.760498047q -0.223876953 -0.367431641 -0.664794922 -0.649414063q -0.440917969 -0.281982422 -1.168945313 -0.422119141l -0.201660156 0.543457031q 1.548339844 0.297363281 1.794433594 1.288574219h -0.540039063q -1.295410156 0 -1.295410156 1.049316406q 0 0.334960938 0.135009766 0.669921875q 0.135009766 0.334960938 0.393066406 0.557128906q 0.258056641 0.222167969 0.623779297 0.222167969Z m 0.109375 -1.876464844h 0.604980469q -0.041015625 0.659667969 -0.217041016 0.960449219q -0.176025391 0.30078125 -0.507568359 0.30078125q -0.21875 0 -0.343505859 -0.140136719q -0.124755859 -0.140136719 -0.174316406 -0.329833984q -0.049560547 -0.189697266 -0.049560547 -0.343505859q 0 -0.239257813 0.162353516 -0.343505859q 0.162353516 -0.104248047 0.524658203 -0.104248047Z "/></symbol><symbol id="g5B36F44985E07A477A0C6293426340D2" overflow="visible"><path d="M 0 0m 2.317382813 -0.078613281q -0.341796875 0 -0.630615234 0.148681641q -0.288818359 0.148681641 -0.599853516 0.449462891q -0.222167969 -0.249511719 -0.427246094 -0.384521484q -0.205078125 -0.135009766 -0.577636719 -0.135009766h -0.150390625v 0.622070313h 0.133300781q 0.229003906 0 0.386230469 0.131591797q 0.157226563 0.131591797 0.280273438 0.340087891q 0.123046875 0.208496094 0.244384766 0.442626953q 0.121337891 0.234130859 0.271728516 0.442626953q 0.150390625 0.208496094 0.364013672 0.340087891q 0.213623047 0.131591797 0.528076172 0.131591797q 0.379394531 0 0.661376953 -0.182861328q 0.281982422 -0.182861328 0.4375 -0.490478516q 0.155517578 -0.307617188 0.155517578 -0.687011719q 0 -0.557128906 -0.281982422 -0.863037109q -0.281982422 -0.305908203 -0.794677734 -0.305908203Z m -0.1640625 1.924316406q -0.170898438 0 -0.311035156 -0.114501953q -0.140136719 -0.114501953 -0.252929688 -0.295654297q -0.112792969 -0.181152344 -0.201660156 -0.375976563q 0.205078125 -0.215332031 0.423828125 -0.352050781q 0.280273438 -0.181152344 0.499023438 -0.181152344q 0.505859375 0 0.505859375 0.509277344q 0 0.35546875 -0.176025391 0.582763672q -0.176025391 0.227294922 -0.487060547 0.227294922Z "/></symbol><symbol id="g760BB0C255F272EAE008916E23157270" overflow="visible"><path d="M 0 0m 0.495605469 2.467773438q 0 0.187988281 0.133300781 0.322998047q 0.133300781 0.135009766 0.321289063 0.135009766q 0.187988281 0 0.321289063 -0.135009766q 0.133300781 -0.135009766 0.133300781 -0.322998047q 0 -0.187988281 -0.133300781 -0.321289063q -0.133300781 -0.133300781 -0.321289063 -0.133300781q -0.187988281 0 -0.321289063 0.129882813q -0.133300781 0.129882813 -0.133300781 0.324707031Z m 0 -2.009765625q 0 0.187988281 0.133300781 0.322998047q 0.133300781 0.135009766 0.321289063 0.135009766q 0.187988281 0 0.321289063 -0.135009766q 0.133300781 -0.135009766 0.133300781 -0.322998047q 0 -0.187988281 -0.133300781 -0.321289063q -0.133300781 -0.133300781 -0.321289063 -0.133300781q -0.187988281 0 -0.321289063 0.129882813q -0.133300781 0.129882813 -0.133300781 0.324707031Z "/></symbol><symbol id="gFED8E7EC74EC66427E41A5CAD956FD92" overflow="visible"><path d="M 0 0m 3.486328125 0l -1.080078125 2.016601563h -1.168945313v -2.016601563h -0.659667969v 4.9765625h 1.647460938q 0.837402344 0 1.290283203 -0.3828125q 0.452880859 -0.3828125 0.452880859 -1.110839844q 0 -0.46484375 -0.251220703 -0.811767578q -0.251220703 -0.346923828 -0.695556641 -0.517822266l 1.168945313 -2.112304688v -0.041015625h -0.704101563Z m -1.261230469 4.436523438h -0.987792969v -1.883300781h 1.008300781q 0.529785156 0 0.798095703 0.271728516q 0.268310547 0.271728516 0.268310547 0.657958984q 0 0.430664063 -0.258056641 0.692138672q -0.258056641 0.261474609 -0.828857422 0.261474609Z "/></symbol><symbol id="gDF93E0F9554355D044FC3630947CA182" overflow="visible"><path d="M 0 0m 1.326171875 2.020019531q 0 0.642578125 -0.135009766 1.259521484q -0.135009766 0.616943359 -0.401611328 1.119384766q -0.266601563 0.502441406 -0.65625 0.799804688l 0.129882813 0.416992188q 0.379394531 -0.205078125 0.687011719 -0.570800781q 0.307617188 -0.365722656 0.528076172 -0.845947266q 0.220458984 -0.480224609 0.340087891 -1.037353516q 0.119628906 -0.557128906 0.119628906 -1.141601563q 0 -0.584472656 -0.119628906 -1.141601563q -0.119628906 -0.557128906 -0.340087891 -1.037353516q -0.220458984 -0.480224609 -0.528076172 -0.845947266q -0.307617188 -0.365722656 -0.687011719 -0.570800781l -0.129882813 0.416992188q 0.389648438 0.297363281 0.65625 0.799804688q 0.266601563 0.502441406 0.401611328 1.119384766q 0.135009766 0.616943359 0.135009766 1.259521484Z "/></symbol><symbol id="g894AAD991E8428FABE7D661E5A7BEE3A" overflow="visible"><path d="M 0 0m 2.307128906 1.244140625q 0 0.088867188 -0.039306641 0.230712891q -0.039306641 0.141845703 -0.093994141 0.264892578l -0.604980469 1.370605469l 0.533203125 0.249511719l 0.775878906 -1.825195313q 0.157226563 -0.369140625 0.275146484 -0.567382813q 0.117919922 -0.198242188 0.232421875 -0.271728516q 0.114501953 -0.073486328 0.261474609 -0.073486328h 0.143554688v -0.622070313h -0.143554688q -0.270019531 0 -0.439208984 0.064941406q -0.169189453 0.064941406 -0.292236328 0.194824219q -0.123046875 0.129882813 -0.249511719 0.328125q -0.239257813 -0.30078125 -0.610107422 -0.442626953q -0.370849609 -0.141845703 -0.924560547 -0.141845703q -0.239257813 0 -0.430664063 0.022216797q -0.19140625 0.022216797 -0.362304688 0.063232422v 0.618652344q 0.393066406 -0.092285156 0.741699219 -0.092285156q 1.227050781 0 1.227050781 0.62890625Z "/></symbol><symbol id="g2F8128769BB45041D08923FAFA257B28" overflow="visible"><path d="M 0 0m 1.035644531 2.020019531l 0.570800781 0.068359375l 0.0546875 -0.799804688q 0.041015625 -0.666503906 0.693847656 -0.666503906h 0.071777344v -0.622070313h -0.078613281q -0.379394531 0 -0.606689453 0.13671875q -0.227294922 0.13671875 -0.367431641 0.386230469q -0.184570313 -0.270019531 -0.485351563 -0.396484375q -0.30078125 -0.126464844 -0.62890625 -0.126464844h -0.328125v 0.622070313h 0.328125q 0.434082031 0 0.620361328 0.194824219q 0.186279297 0.194824219 0.186279297 0.598144531q 0 0.1640625 -0.008544922 0.311035156q -0.008544922 0.146972656 -0.022216797 0.293945313Z m 0.064941406 1.702148438l 0.495605469 -0.495605469l -0.495605469 -0.495605469l -0.495605469 0.495605469l 0.495605469 0.495605469Z "/></symbol><symbol id="gD3EB82B8176676062DE0AE27B9B78F8E" overflow="visible"><path d="M 0 0m 0.916015625 1.497070313v 3.209472656h 0.577636719v -3.219726563q 0 -0.375976563 0.148681641 -0.620361328q 0.148681641 -0.244384766 0.541748047 -0.244384766h 0.109375v -0.622070313h -0.102539063q -0.3828125 0 -0.608398438 0.133300781q -0.225585938 0.133300781 -0.358886719 0.386230469q -0.112792969 -0.167480469 -0.227294922 -0.283691406q -0.114501953 -0.116210938 -0.290527344 -0.176025391q -0.176025391 -0.059814453 -0.480224609 -0.059814453h -0.293945313v 0.622070313h 0.287109375q 0.287109375 0 0.435791016 0.114501953q 0.148681641 0.114501953 0.205078125 0.312744141q 0.056396484 0.198242188 0.056396484 0.447753906Z "/></symbol><symbol id="gA3F4BEDEC15A2276991CACC51C354F9F" overflow="visible"><path d="M 0 0m 0.557128906 0h -0.62890625v 0.622070313h 0.622070313q 0.341796875 0 0.463134766 0.198242188q 0.121337891 0.198242188 0.121337891 0.502441406q 0 0.222167969 -0.041015625 0.475097656q -0.041015625 0.252929688 -0.088867188 0.509277344l 0.594726563 0.150390625q 0.058105469 -0.2734375 0.092285156 -0.536621094q 0.034179688 -0.263183594 0.034179688 -0.502441406q 0 -0.41015625 -0.112792969 -0.731445313q -0.112792969 -0.321289063 -0.369140625 -0.504150391q -0.256347656 -0.182861328 -0.687011719 -0.182861328Z m 0.075195313 -0.522949219l 0.495605469 -0.495605469l -0.495605469 -0.495605469l -0.495605469 0.495605469l 0.495605469 0.495605469Z "/></symbol><symbol id="gFABFA51790B342FFC1DD475E8783B587" overflow="visible"><path d="M 0 0m 0.461425781 1.326171875l 2.262695313 0.898925781l -2.262695313 0.881835938v 0.652832031l 2.918945313 -1.291992188v -0.499023438l -2.918945313 -1.295410156v 0.652832031Z "/></symbol><symbol id="gCAAAAAA37619B868A86E9DBBCD1A54CC" overflow="visible"><path d="M 0 0m 3.229980469 1.2578125q 0 0.232421875 -0.099121094 0.396484375q -0.099121094 0.1640625 -0.35546875 0.297363281q -0.256347656 0.133300781 -0.728027344 0.270019531q -0.73828125 0.215332031 -1.17578125 0.553710938q -0.4375 0.338378906 -0.4375 0.916015625q 0 0.386230469 0.210205078 0.692138672q 0.210205078 0.305908203 0.591308594 0.483642578q 0.381103516 0.177734375 0.890380859 0.177734375q 0.560546875 0 0.951904297 -0.213623047q 0.391357422 -0.213623047 0.596435547 -0.557128906q 0.205078125 -0.343505859 0.205078125 -0.733154297h -0.65625q 0 0.416992188 -0.270019531 0.690429688q -0.270019531 0.2734375 -0.827148438 0.2734375q -0.526367188 0 -0.779296875 -0.230712891q -0.252929688 -0.230712891 -0.252929688 -0.575927734q 0 -0.311035156 0.275146484 -0.521240234q 0.275146484 -0.210205078 0.890380859 -0.381103516q 0.84765625 -0.239257813 1.240722656 -0.594726563q 0.393066406 -0.35546875 0.393066406 -0.936523438q 0 -0.403320313 -0.215332031 -0.704101563q -0.215332031 -0.30078125 -0.604980469 -0.46484375q -0.389648438 -0.1640625 -0.916015625 -0.1640625q -0.345214844 0 -0.678466797 0.095703125q -0.333251953 0.095703125 -0.604980469 0.287109375q -0.271728516 0.19140625 -0.434082031 0.473388672q -0.162353516 0.281982422 -0.162353516 0.654541016h 0.65625q 0 -0.338378906 0.172607422 -0.553710938q 0.172607422 -0.215332031 0.452880859 -0.317871094q 0.280273438 -0.102539063 0.598144531 -0.102539063q 0.516113281 0 0.794677734 0.213623047q 0.278564453 0.213623047 0.278564453 0.575927734Z "/></symbol><symbol id="gA8BF346C8F7E12EEE0A450BAF31597D1" overflow="visible"><path d="M 0 0m 1.483398438 1.835449219q -0.239257813 -0.21875 -0.377685547 -0.434082031q -0.138427734 -0.215332031 -0.138427734 -0.526367188q 0.242675781 0 0.336669922 -0.105957031q 0.093994141 -0.105957031 0.093994141 -0.317871094q 0 -0.208496094 -0.105957031 -0.329833984q -0.105957031 -0.121337891 -0.317871094 -0.121337891q -0.270019531 0 -0.387939453 0.150390625q -0.117919922 0.150390625 -0.117919922 0.403320313q 0 0.46484375 0.21875 0.825439453q 0.21875 0.360595703 0.570800781 0.634033203l 0.225585938 -0.177734375Z "/></symbol><symbol id="g67A5D356F59D6CB7B21741944263AA19" overflow="visible"><path d="M 0 0m 1.06640625 2.020019531q 0 -0.642578125 0.13671875 -1.259521484q 0.13671875 -0.616943359 0.401611328 -1.119384766q 0.264892578 -0.502441406 0.654541016 -0.799804688l -0.129882813 -0.416992188q -0.379394531 0.205078125 -0.687011719 0.570800781q -0.307617188 0.365722656 -0.528076172 0.845947266q -0.220458984 0.480224609 -0.340087891 1.037353516q -0.119628906 0.557128906 -0.119628906 1.141601563q 0 0.584472656 0.119628906 1.141601563q 0.119628906 0.557128906 0.340087891 1.037353516q 0.220458984 0.480224609 0.528076172 0.845947266q 0.307617188 0.365722656 0.687011719 0.570800781l 0.129882813 -0.416992188q -0.389648438 -0.297363281 -0.654541016 -0.799804688q -0.264892578 -0.502441406 -0.401611328 -1.119384766q -0.13671875 -0.616943359 -0.13671875 -1.259521484Z "/></symbol><symbol id="g76C85B7E432B981CB1DC07BC05984E27" overflow="visible"><path d="M 0 0m 4.016113281 4.9765625v -0.540039063h -1.599609375v -4.436523438h -0.649414063v 4.436523438h -1.596191406v 0.540039063h 3.845214844Z "/></symbol><symbol id="g41B5242DBADFFF45A97DD98DEBF6D213" overflow="visible"><path d="M 0 0m 2.771972656 0.584472656q 0 -1.99609375 -2.190917969 -2.416503906l -0.201660156 0.543457031q 0.786132813 0.150390625 1.254394531 0.500732422q 0.468261719 0.350341797 0.553710938 0.880126953q -0.129882813 -0.041015625 -0.30078125 -0.071777344q -0.170898438 -0.030761719 -0.30078125 -0.030761719q -1.247558594 0 -1.247558594 1.059570313q 0 0.252929688 0.076904297 0.507568359q 0.076904297 0.254638672 0.225585938 0.468261719q 0.148681641 0.213623047 0.364013672 0.343505859q 0.215332031 0.129882813 0.488769531 0.129882813q 0.324707031 0 0.565673828 -0.160644531q 0.240966797 -0.160644531 0.398193359 -0.434082031q 0.157226563 -0.2734375 0.235839844 -0.615234375q 0.078613281 -0.341796875 0.078613281 -0.704101563Z m -1.168945313 0.023925781q 0.30078125 0 0.598144531 0.088867188q -0.034179688 0.57421875 -0.211914063 0.880126953q -0.177734375 0.305908203 -0.502441406 0.305908203q -0.225585938 0 -0.350341797 -0.140136719q -0.124755859 -0.140136719 -0.174316406 -0.329833984q -0.049560547 -0.189697266 -0.049560547 -0.343505859q 0 -0.249511719 0.170898438 -0.35546875q 0.170898438 -0.105957031 0.51953125 -0.105957031Z "/></symbol><symbol id="g22284E4C5B121D182B850EFAC21AC998" overflow="visible"><path d="M 0 0m 0.343 -0.091c 0.679 -0.602 1.071 -1.169 1.19 -1.512h 0.161c 0.308 0.756 1.204 1.512 1.211 1.512v 0.28c -0.588 -0.273 -0.91 -0.56 -1.099 -0.791v 6.09h -0.364v -6.09c -0.217 0.224 -0.595 0.567 -1.099 0.777Z "/></symbol><symbol id="gB86C469C8CAE9CA4E45024F268618203" overflow="visible"><path d="M 0 0m 2.840332031 4.983398438h 0.0546875v -0.536621094h -0.0546875q -0.604980469 0 -0.974121094 -0.232421875q -0.369140625 -0.232421875 -0.548583984 -0.603271484q -0.179443359 -0.370849609 -0.217041016 -0.794677734q 0.205078125 0.232421875 0.480224609 0.340087891q 0.275146484 0.107666016 0.589599609 0.107666016q 0.499023438 0 0.813476563 -0.239257813q 0.314453125 -0.239257813 0.46484375 -0.615234375q 0.150390625 -0.375976563 0.150390625 -0.786132813q 0 -0.471679688 -0.176025391 -0.854492188q -0.176025391 -0.3828125 -0.51953125 -0.610107422q -0.343505859 -0.227294922 -0.849365234 -0.227294922q -0.403320313 0 -0.704101563 0.165771484q -0.30078125 0.165771484 -0.499023438 0.442626953q -0.198242188 0.276855469 -0.297363281 0.615234375q -0.099121094 0.338378906 -0.099121094 0.687011719v 0.297363281q 0 0.526367188 0.105957031 1.032226563q 0.105957031 0.505859375 0.367431641 0.916015625q 0.261474609 0.41015625 0.726318359 0.652832031q 0.46484375 0.242675781 1.186035156 0.242675781Z m -1.75 -3.161621094q 0 -0.440917969 0.13671875 -0.746826172q 0.13671875 -0.305908203 0.357177734 -0.463134766q 0.220458984 -0.157226563 0.469970703 -0.157226563q 0.4375 0 0.678466797 0.321289063q 0.240966797 0.321289063 0.240966797 0.816894531q 0 0.297363281 -0.097412109 0.560546875q -0.097412109 0.263183594 -0.299072266 0.425537109q -0.201660156 0.162353516 -0.509277344 0.162353516q -0.331542969 0 -0.6015625 -0.198242188q -0.270019531 -0.198242188 -0.375976563 -0.481933594v -0.239257813Z "/></symbol><symbol id="gB1D0B6E001F1D2CF6CD84E326E1EFFC1" overflow="visible"><path d="M 0 0m 2.6796875 0q -0.235839844 0 -0.394775391 0.063232422q -0.158935547 0.063232422 -0.247802734 0.135009766q -0.051269531 -0.447753906 -0.247802734 -0.866455078q -0.196533203 -0.418701172 -0.589599609 -0.729736328q -0.393066406 -0.311035156 -1.0390625 -0.4375l -0.201660156 0.540039063q 0.833984375 0.181152344 1.17578125 0.634033203q 0.341796875 0.452880859 0.341796875 1.071533203q 0 0.290527344 -0.063232422 0.610107422q -0.063232422 0.319580078 -0.176025391 0.651123047l 0.567382813 0.19140625l 0.184570313 -0.714355469q 0.075195313 -0.287109375 0.239257813 -0.406738281q 0.1640625 -0.119628906 0.413574219 -0.119628906h 0.129882813v -0.622070313h -0.092285156Z "/></symbol><symbol id="gD90665CD7E8D0EEC49B790D249344585" overflow="visible"><path d="M 0 0m 1.435546875 4.012695313l 0.478515625 -0.475097656l -0.478515625 -0.481933594l -0.475097656 0.481933594l 0.475097656 0.475097656Z m -1.134765625 0l 0.478515625 -0.475097656l -0.478515625 -0.481933594l -0.475097656 0.481933594l 0.475097656 0.475097656Z m -0.369140625 -3.390625h 0.700683594q 0.341796875 0 0.463134766 0.198242188q 0.121337891 0.198242188 0.121337891 0.502441406q 0 0.222167969 -0.041015625 0.475097656q -0.041015625 0.252929688 -0.088867188 0.509277344l 0.594726563 0.150390625q 0.058105469 -0.2734375 0.092285156 -0.536621094q 0.034179688 -0.263183594 0.034179688 -0.502441406q 0 -0.41015625 -0.112792969 -0.731445313q -0.112792969 -0.321289063 -0.369140625 -0.504150391q -0.256347656 -0.182861328 -0.687011719 -0.182861328h -0.707519531v 0.622070313Z "/></symbol><symbol id="g8A766D82CCA86BDB76D98B5F722E0C65" overflow="visible"><path d="M 0 0m 2.354980469 -1.760253906q -0.73828125 0 -1.180908203 0.270019531q -0.442626953 0.270019531 -0.639160156 0.719482422q -0.196533203 0.449462891 -0.196533203 0.986083984q 0 0.362304688 0.075195313 0.743408203q 0.075195313 0.381103516 0.205078125 0.743408203l 0.543457031 -0.21875q -0.099121094 -0.314453125 -0.167480469 -0.645996094q -0.068359375 -0.331542969 -0.068359375 -0.642578125q 0 -0.369140625 0.131591797 -0.673339844q 0.131591797 -0.304199219 0.442626953 -0.485351563q 0.311035156 -0.181152344 0.854492188 -0.181152344q 0.799804688 0 1.189453125 0.293945313q 0.389648438 0.293945313 0.389648438 0.851074219h -0.581054688q -1.295410156 0 -1.295410156 1.049316406q 0 0.334960938 0.135009766 0.669921875q 0.135009766 0.334960938 0.393066406 0.557128906q 0.258056641 0.222167969 0.623779297 0.222167969q 0.533203125 0 0.898925781 -0.476806641q 0.365722656 -0.476806641 0.379394531 -1.399658203h 0.396484375v -0.622070313h -0.403320313q 0 -0.830566406 -0.565673828 -1.295410156q -0.565673828 -0.46484375 -1.560302734 -0.46484375Z m 0.963867188 2.382324219h 0.604980469q -0.041015625 0.659667969 -0.217041016 0.960449219q -0.176025391 0.30078125 -0.507568359 0.30078125q -0.21875 0 -0.343505859 -0.140136719q -0.124755859 -0.140136719 -0.174316406 -0.329833984q -0.049560547 -0.189697266 -0.049560547 -0.343505859q 0 -0.239257813 0.162353516 -0.343505859q 0.162353516 -0.104248047 0.524658203 -0.104248047Z m 0.403320313 3.339355469l 0.478515625 -0.475097656l -0.478515625 -0.481933594l -0.475097656 0.481933594l 0.475097656 0.475097656Z m -1.134765625 0l 0.478515625 -0.475097656l -0.478515625 -0.481933594l -0.475097656 0.481933594l 0.475097656 0.475097656Z "/></symbol><symbol id="g74DAFBADB601DAC726CAFB94A72C6263" overflow="visible"><path d="M 0 0m -0.068359375 0.622070313h 1.09375q 0.434082031 0 0.620361328 0.194824219q 0.186279297 0.194824219 0.186279297 0.598144531q 0 0.1640625 -0.008544922 0.311035156q -0.008544922 0.146972656 -0.022216797 0.293945313l 0.570800781 0.068359375l 0.0546875 -0.799804688q 0.041015625 -0.666503906 0.693847656 -0.666503906h 0.071777344v -0.622070313h -0.078613281q -0.379394531 0 -0.606689453 0.13671875q -0.227294922 0.13671875 -0.367431641 0.386230469q -0.184570313 -0.270019531 -0.485351563 -0.396484375q -0.30078125 -0.126464844 -0.62890625 -0.126464844h -1.09375v 0.622070313Z m 1.808105469 -1.165527344l 0.478515625 -0.475097656l -0.478515625 -0.481933594l -0.475097656 0.481933594l 0.475097656 0.475097656Z m -1.134765625 0l 0.478515625 -0.475097656l -0.478515625 -0.481933594l -0.475097656 0.481933594l 0.475097656 0.475097656Z "/></symbol><symbol id="g649D60E15C7D59851FB00A270816D67" overflow="visible"><path d="M 0 0m 0.08203125 0h -0.150390625v 0.622070313h 0.133300781q 0.229003906 0 0.386230469 0.131591797q 0.157226563 0.131591797 0.280273438 0.340087891q 0.123046875 0.208496094 0.244384766 0.442626953q 0.121337891 0.234130859 0.271728516 0.442626953q 0.150390625 0.208496094 0.364013672 0.340087891q 0.213623047 0.131591797 0.528076172 0.131591797q 0.536621094 0 0.833984375 -0.326416016q 0.297363281 -0.326416016 0.399902344 -0.811767578q 0.068359375 -0.334960938 0.234130859 -0.512695313q 0.165771484 -0.177734375 0.384521484 -0.177734375h 0.088867188v -0.622070313h -0.092285156q -0.21875 0 -0.427246094 0.090576172q -0.208496094 0.090576172 -0.338378906 0.288818359q -0.143554688 -0.208496094 -0.35546875 -0.333251953q -0.211914063 -0.124755859 -0.550292969 -0.124755859q -0.341796875 0 -0.630615234 0.148681641q -0.288818359 0.148681641 -0.599853516 0.449462891q -0.222167969 -0.249511719 -0.427246094 -0.384521484q -0.205078125 -0.135009766 -0.577636719 -0.135009766Z m 2.071289063 1.845703125q -0.170898438 0 -0.311035156 -0.114501953q -0.140136719 -0.114501953 -0.252929688 -0.295654297q -0.112792969 -0.181152344 -0.201660156 -0.375976563q 0.112792969 -0.116210938 0.225585938 -0.208496094q 0.112792969 -0.092285156 0.21875 -0.157226563q 0.2734375 -0.167480469 0.478515625 -0.167480469q 0.505859375 0 0.505859375 0.509277344q 0 0.35546875 -0.176025391 0.582763672q -0.176025391 0.227294922 -0.487060547 0.227294922Z "/></symbol><symbol id="g3872725F164D3E2F2EF4D4DE6E1D222" overflow="visible"><path d="M 0 0m 0.980957031 0.622070313q -0.153808594 0.19140625 -0.261474609 0.469970703q -0.107666016 0.278564453 -0.107666016 0.558837891q 0 0.365722656 0.19140625 0.663085938q 0.19140625 0.297363281 0.502441406 0.471679688q 0.311035156 0.174316406 0.669921875 0.174316406q 0.543457031 0 1.165527344 -0.423828125l -0.229003906 -0.509277344q -0.533203125 0.314453125 -0.898925781 0.314453125q -0.314453125 0 -0.557128906 -0.194824219q -0.242675781 -0.194824219 -0.242675781 -0.51953125q 0 -0.252929688 0.114501953 -0.447753906q 0.114501953 -0.194824219 0.244384766 -0.302490234q 0.129882813 -0.107666016 0.174316406 -0.107666016q 0.061523438 0 0.119628906 0.017089844l 1.445800781 0.345214844v -0.622070313q -0.851074219 -0.259765625 -1.573974609 -0.384521484q -0.722900391 -0.124755859 -1.433837891 -0.124755859h -0.372558594v 0.622070313h 1.049316406Z "/></symbol></defs><defs><clipPath id="c30941A088BBCBE1834EC36370D5C7D7B"><path d="M 0 0m 0.2 0.2h 127.159055118v 73.300787402h -127.159055118Z "/></clipPath><clipPath id="cEC11E5AD5DBA531A56E990C7A2E7581"><path d="M 0 0m 0.2 0.2h 70.466141732v 73.300787402h -70.466141732Z "/></clipPath></defs></svg>