<svg viewBox="0 0 385.511811024 71.360739881" width="385.511811024pt" height="71.360739881pt" xmlns="http://www.w3.org/2000/svg" xmlns:xlink="http://www.w3.org/1999/xlink" xmlns:h5="http://www.w3.org/1999/xhtml"><path fill="#ffffff" fill-rule="nonzero" d="M 0 0v 71.360739881h 385.511811024v -71.360739881Z "/><g transform="translate(8.503937008 8.503937008)"><path fill="#eef5f5" fill-rule="nonzero" d="M 0 0m 0 22.277165354c 0 -12.303338695 9.97382666 -22.277165354 22.277165354 -22.277165354h 68.831496063c 12.303338695 0 22.277165354 9.97382666 22.277165354 22.277165354v 0.8c 0 12.303338695 -9.97382666 22.277165354 -22.277165354 22.277165354h -68.831496063c -12.303338695 0 -22.277165354 -9.97382666 -22.277165354 -22.277165354Z "/><path fill="none" stroke="#136f73" stroke-width="0.8" stroke-linecap="butt" stroke-linejoin="miter" stroke-miterlimit="4" d="M 0 0m 22.277165354 0h 68.831496063c 12.303338695 0 22.277165354 9.97382666 22.277165354 22.277165354v 0.8c 0 12.303338695 -9.97382666 22.277165354 -22.277165354 22.277165354h -68.831496063c -12.303338695 0 -22.277165354 -9.97382666 -22.277165354 -22.277165354v -0.8c 0 -12.303338695 9.97382666 -22.277165354 22.277165354 -22.277165354"/><g transform="matrix(1 0 0 -1 32.586712214 19.133858268)"><use xlink:href="#g79796EEB26EA756DB3D6245457F17A60" x="0" y="0" fill="#b3261e" fill-rule="nonzero"/><use xlink:href="#g79796EEB26EA756DB3D6245457F17A60" x="7.211425781" y="0" fill="#b3261e" fill-rule="nonzero"/><use xlink:href="#g79796EEB26EA756DB3D6245457F17A60" x="14.422851563" y="0" fill="#b3261e" fill-rule="nonzero"/><use xlink:href="#g79796EEB26EA756DB3D6245457F17A60" x="21.634277344" y="0" fill="#b3261e" fill-rule="nonzero"/><use xlink:href="#g79796EEB26EA756DB3D6245457F17A60" x="28.845703125" y="0" fill="#b3261e" fill-rule="nonzero"/><use xlink:href="#g79796EEB26EA756DB3D6245457F17A60" x="36.057128906" y="0" fill="#b3261e" fill-rule="nonzero"/><use xlink:href="#g79796EEB26EA756DB3D6245457F17A60" x="43.268554688" y="0" fill="#b3261e" fill-rule="nonzero"/></g><g transform="matrix(1 0 0 -1 34.786175105 33.418714628)"><use xlink:href="#g317098B0F05CACEDAC89B9744D27902B" x="0" y="0" fill="#0f2744" fill-rule="nonzero"/><use xlink:href="#g317098B0F05CACEDAC89B9744D27902B" x="6.583007813" y="0" fill="#0f2744" fill-rule="nonzero"/><use xlink:href="#g317098B0F05CACEDAC89B9744D27902B" x="13.166015625" y="0" fill="#0f2744" fill-rule="nonzero"/><use xlink:href="#g317098B0F05CACEDAC89B9744D27902B" x="19.749023438" y="0" fill="#0f2744" fill-rule="nonzero"/><use xlink:href="#g317098B0F05CACEDAC89B9744D27902B" x="26.33203125" y="0" fill="#0f2744" fill-rule="nonzero"/><use xlink:href="#g317098B0F05CACEDAC89B9744D27902B" x="32.915039063" y="0" fill="#0f2744" fill-rule="nonzero"/><use xlink:href="#g317098B0F05CACEDAC89B9744D27902B" x="39.498046875" y="0" fill="#0f2744" fill-rule="nonzero"/></g></g><g transform="translate(8.503937008 56.858267717)"><g transform="matrix(1 0 0 -1 100.299480769 5.998535156)"><use xlink:href="#g82C6B294E56E37B06EDB64F46881542E" x="0" y="0" fill="#0f2744" fill-rule="nonzero"/></g><g transform="matrix(1 0 0 -1 10.771892878 5.998535156)"><use xlink:href="#g6ECB8384EE3681294A47069C5AE675A5" x="0" y="0" fill="#0f2744" fill-rule="nonzero"/><use xlink:href="#g792D2C2EFA8AA2F0397E8659AD68DE90" x="2.63671875" y="0" fill="#0f2744" fill-rule="nonzero"/><use xlink:href="#g6F5A716F6FEB0DE2CBF98EA0FCED208E" x="8.122558594" y="0" fill="#0f2744" fill-rule="nonzero"/><use xlink:href="#g71D105F1DF8349842E0E6E95031C7B91" x="14.454345703" y="0" fill="#0f2744" fill-rule="nonzero"/><use xlink:href="#gE6DFE870593ECA735C790FA0B4F6EC" x="16.864013672" y="0" fill="#0f2744" fill-rule="nonzero"/><use xlink:href="#g89D8366B7212C2A155665EFD2161E4F8" x="19.837646484" y="0" fill="#0f2744" fill-rule="nonzero"/><use xlink:href="#g73BAEC41E7FB7069692A22058F2FE1D1" x="22.503662109" y="0" fill="#0f2744" fill-rule="nonzero"/><use xlink:href="#gE88D4D9086BC128A82F9D83FF43D0FE3" x="23.931884766" y="0" fill="#0f2744" fill-rule="nonzero"/><use xlink:href="#g13633E8FEEEE6E3F16E48EF0769273CB" x="26.905517578" y="0" fill="#0f2744" fill-rule="nonzero"/><use xlink:href="#g6C5D9BC50800B478E3ABB6DF6EC98264" x="29.165039063" y="0" fill="#0f2744" fill-rule="nonzero"/><use xlink:href="#g817223F373698CF0314A9CF68DA405A6" x="32.552490234" y="0" fill="#0f2744" fill-rule="nonzero"/><use xlink:href="#g75B6B2E45FB735BE3534F2997D46B43E" x="35.364990234" y="0" fill="#0f2744" fill-rule="nonzero"/><use xlink:href="#g989876883D39D9BE945C24C085483079" x="39.891357422" y="0" fill="#0f2744" fill-rule="nonzero"/><use xlink:href="#gD31DE949745316356C664D02005989B5" x="46.93359375" y="0" fill="#0f2744" fill-rule="nonzero"/><use xlink:href="#g73BAEC41E7FB7069692A22058F2FE1D1" x="52.03125" y="0" fill="#0f2744" fill-rule="nonzero"/><use xlink:href="#gE88D4D9086BC128A82F9D83FF43D0FE3" x="53.459472656" y="0" fill="#0f2744" fill-rule="nonzero"/><use xlink:href="#g61C9F8D8F1F29ADFDB1A513293D804EB" x="56.433105469" y="0" fill="#0f2744" fill-rule="nonzero"/><use xlink:href="#gFA49B66BB0CB58E96CC41C3A2A6AB952" x="59.12109375" y="0" fill="#0f2744" fill-rule="nonzero"/><use xlink:href="#g73BAEC41E7FB7069692A22058F2FE1D1" x="65.108642578" y="0" fill="#0f2744" fill-rule="nonzero"/><use xlink:href="#g989876883D39D9BE945C24C085483079" x="68.939208984" y="0" fill="#0f2744" fill-rule="nonzero"/><use xlink:href="#g13633E8FEEEE6E3F16E48EF0769273CB" x="75.981445313" y="0" fill="#0f2744" fill-rule="nonzero"/><use xlink:href="#g7E474D6DBE1ABE32C6AF5A3DA5C2BF76" x="78.240966797" y="0" fill="#0f2744" fill-rule="nonzero"/><use xlink:href="#gD31DE949745316356C664D02005989B5" x="80.302734375" y="0" fill="#0f2744" fill-rule="nonzero"/><use xlink:href="#g11195B019D4D0ED18DF7FB962264110" x="87.290039063" y="0" fill="#0f2744" fill-rule="nonzero"/></g></g><g transform="translate(136.062992126 8.503937008)"><path fill="#eef5f5" fill-rule="nonzero" d="M 0 0m 0 22.277165354c 0 -12.303338695 9.97382666 -22.277165354 22.277165354 -22.277165354h 68.831496063c 12.303338695 0 22.277165354 9.97382666 22.277165354 22.277165354v 0.8c 0 12.303338695 -9.97382666 22.277165354 -22.277165354 22.277165354h -68.831496063c -12.303338695 0 -22.277165354 -9.97382666 -22.277165354 -22.277165354Z "/><path fill="none" stroke="#136f73" stroke-width="0.8" stroke-linecap="butt" stroke-linejoin="miter" stroke-miterlimit="4" d="M 0 0m 22.277165354 0h 68.831496063c 12.303338695 0 22.277165354 9.97382666 22.277165354 22.277165354v 0.8c 0 12.303338695 -9.97382666 22.277165354 -22.277165354 22.277165354h -68.831496063c -12.303338695 0 -22.277165354 -9.97382666 -22.277165354 -22.277165354v -0.8c 0 -12.303338695 9.97382666 -22.277165354 22.277165354 -22.277165354"/><g transform="matrix(1 0 0 -1 33.843548151 19.133858268)"><use xlink:href="#g317098B0F05CACEDAC89B9744D27902B" x="0" y="0" fill="#b3261e" fill-rule="nonzero"/><use xlink:href="#g317098B0F05CACEDAC89B9744D27902B" x="6.583007813" y="0" fill="#b3261e" fill-rule="nonzero"/><use xlink:href="#g317098B0F05CACEDAC89B9744D27902B" x="13.166015625" y="0" fill="#b3261e" fill-rule="nonzero"/><use xlink:href="#g317098B0F05CACEDAC89B9744D27902B" x="19.749023438" y="0" fill="#b3261e" fill-rule="nonzero"/><use xlink:href="#g79796EEB26EA756DB3D6245457F17A60" x="26.33203125" y="0" fill="#b3261e" fill-rule="nonzero"/><use xlink:href="#g79796EEB26EA756DB3D6245457F17A60" x="33.543457031" y="0" fill="#b3261e" fill-rule="nonzero"/><use xlink:href="#g79796EEB26EA756DB3D6245457F17A60" x="40.754882813" y="0" fill="#b3261e" fill-rule="nonzero"/></g><g transform="matrix(1 0 0 -1 33.529339167 33.418714628)"><use xlink:href="#g79796EEB26EA756DB3D6245457F17A60" x="0" y="0" fill="#0f2744" fill-rule="nonzero"/><use xlink:href="#g79796EEB26EA756DB3D6245457F17A60" x="7.211425781" y="0" fill="#0f2744" fill-rule="nonzero"/><use xlink:href="#g79796EEB26EA756DB3D6245457F17A60" x="14.422851563" y="0" fill="#0f2744" fill-rule="nonzero"/><use xlink:href="#g79796EEB26EA756DB3D6245457F17A60" x="21.634277344" y="0" fill="#0f2744" fill-rule="nonzero"/><use xlink:href="#g317098B0F05CACEDAC89B9744D27902B" x="28.845703125" y="0" fill="#0f2744" fill-rule="nonzero"/><use xlink:href="#g317098B0F05CACEDAC89B9744D27902B" x="35.428710938" y="0" fill="#0f2744" fill-rule="nonzero"/><use xlink:href="#g317098B0F05CACEDAC89B9744D27902B" x="42.01171875" y="0" fill="#0f2744" fill-rule="nonzero"/></g></g><g transform="translate(136.062992126 56.858267717)"><g transform="matrix(1 0 0 -1 99.150296198 5.998535156)"><use xlink:href="#g3FDDFA479DC1CAC10470E4B92DC3A87" x="0" y="0" fill="#0f2744" fill-rule="nonzero"/></g><g transform="matrix(1 0 0 -1 10.159602839 5.998535156)"><use xlink:href="#g6ECB8384EE3681294A47069C5AE675A5" x="0" y="0" fill="#0f2744" fill-rule="nonzero"/><use xlink:href="#gA1E3C31A0A1FBCE137CE958AB7AF9572" x="2.63671875" y="0" fill="#0f2744" fill-rule="nonzero"/><use xlink:href="#gBE10D17F4A165111A8248E05E0217B0A" x="7.576904297" y="0" fill="#0f2744" fill-rule="nonzero"/><use xlink:href="#gE88D4D9086BC128A82F9D83FF43D0FE3" x="10.568847656" y="0" fill="#0f2744" fill-rule="nonzero"/><use xlink:href="#g57C66F9E59C7906258112CF47622C8E1" x="13.542480469" y="0" fill="#0f2744" fill-rule="nonzero"/><use xlink:href="#gBCC1EC0B72AB34C51FBAF953EAACB8D9" x="17.717285156" y="0" fill="#0f2744" fill-rule="nonzero"/><use xlink:href="#g6C5D9BC50800B478E3ABB6DF6EC98264" x="22.884521484" y="0" fill="#0f2744" fill-rule="nonzero"/><use xlink:href="#gB57F8D2D57468A72FE942ED39A88A05D" x="26.271972656" y="0" fill="#0f2744" fill-rule="nonzero"/></g><g transform="matrix(1 0 0 -1 42.393489558 5.998535156)"><use xlink:href="#g7072D6B8B444B544965E272625A85940" x="0" y="0" fill="#0f2744" fill-rule="nonzero"/></g><g transform="matrix(1 0 0 -1 51.048489558 5.998535156)"><use xlink:href="#g75B6B2E45FB735BE3534F2997D46B43E" x="0" y="0" fill="#0f2744" fill-rule="nonzero"/><use xlink:href="#g792D2C2EFA8AA2F0397E8659AD68DE90" x="4.526367188" y="0" fill="#0f2744" fill-rule="nonzero"/><use xlink:href="#g6F5A716F6FEB0DE2CBF98EA0FCED208E" x="10.012207031" y="0" fill="#0f2744" fill-rule="nonzero"/><use xlink:href="#g71D105F1DF8349842E0E6E95031C7B91" x="16.343994141" y="0" fill="#0f2744" fill-rule="nonzero"/><use xlink:href="#gE6DFE870593ECA735C790FA0B4F6EC" x="18.753662109" y="0" fill="#0f2744" fill-rule="nonzero"/><use xlink:href="#g89D8366B7212C2A155665EFD2161E4F8" x="21.727294922" y="0" fill="#0f2744" fill-rule="nonzero"/><use xlink:href="#g73BAEC41E7FB7069692A22058F2FE1D1" x="24.393310547" y="0" fill="#0f2744" fill-rule="nonzero"/><use xlink:href="#gE88D4D9086BC128A82F9D83FF43D0FE3" x="25.821533203" y="0" fill="#0f2744" fill-rule="nonzero"/><use xlink:href="#g13633E8FEEEE6E3F16E48EF0769273CB" x="28.795166016" y="0" fill="#0f2744" fill-rule="nonzero"/><use xlink:href="#g6C5D9BC50800B478E3ABB6DF6EC98264" x="31.0546875" y="0" fill="#0f2744" fill-rule="nonzero"/><use xlink:href="#g697263A93C5ECBA789876ADCEA81887E" x="34.442138672" y="0" fill="#0f2744" fill-rule="nonzero"/><use xlink:href="#g89D8366B7212C2A155665EFD2161E4F8" x="37.569580078" y="0" fill="#0f2744" fill-rule="nonzero"/><use xlink:href="#g402BC71647F950272FB6E389E4968BD0" x="40.235595703" y="0" fill="#0f2744" fill-rule="nonzero"/><use xlink:href="#g11195B019D4D0ED18DF7FB962264110" x="45.864257813" y="0" fill="#0f2744" fill-rule="nonzero"/></g></g><g transform="translate(263.622047244 8.503937008)"><path fill="#eef5f5" fill-rule="nonzero" d="M 0 0m 0 22.277165354c 0 -12.303338695 9.97382666 -22.277165354 22.277165354 -22.277165354h 68.831496063c 12.303338695 0 22.277165354 9.97382666 22.277165354 22.277165354v 0.8c 0 12.303338695 -9.97382666 22.277165354 -22.277165354 22.277165354h -68.831496063c -12.303338695 0 -22.277165354 -9.97382666 -22.277165354 -22.277165354Z "/><path fill="none" stroke="#136f73" stroke-width="0.8" stroke-linecap="butt" stroke-linejoin="miter" stroke-miterlimit="4" d="M 0 0m 22.277165354 0h 68.831496063c 12.303338695 0 22.277165354 9.97382666 22.277165354 22.277165354v 0.8c 0 12.303338695 -9.97382666 22.277165354 -22.277165354 22.277165354h -68.831496063c -12.303338695 0 -22.277165354 -9.97382666 -22.277165354 -22.277165354v -0.8c 0 -12.303338695 9.97382666 -22.277165354 22.277165354 -22.277165354"/><g transform="matrix(1 0 0 -1 33.843548151 19.133858268)"><use xlink:href="#g79796EEB26EA756DB3D6245457F17A60" x="0" y="0" fill="#b3261e" fill-rule="nonzero"/><use xlink:href="#g79796EEB26EA756DB3D6245457F17A60" x="7.211425781" y="0" fill="#b3261e" fill-rule="nonzero"/><use xlink:href="#g79796EEB26EA756DB3D6245457F17A60" x="14.422851563" y="0" fill="#b3261e" fill-rule="nonzero"/><use xlink:href="#g317098B0F05CACEDAC89B9744D27902B" x="21.634277344" y="0" fill="#b3261e" fill-rule="nonzero"/><use xlink:href="#g317098B0F05CACEDAC89B9744D27902B" x="28.217285156" y="0" fill="#b3261e" fill-rule="nonzero"/><use xlink:href="#g317098B0F05CACEDAC89B9744D27902B" x="34.800292969" y="0" fill="#b3261e" fill-rule="nonzero"/><use xlink:href="#g317098B0F05CACEDAC89B9744D27902B" x="41.383300781" y="0" fill="#b3261e" fill-rule="nonzero"/></g><g transform="matrix(1 0 0 -1 33.529339167 33.418714628)"><use xlink:href="#g317098B0F05CACEDAC89B9744D27902B" x="0" y="0" fill="#0f2744" fill-rule="nonzero"/><use xlink:href="#g317098B0F05CACEDAC89B9744D27902B" x="6.583007813" y="0" fill="#0f2744" fill-rule="nonzero"/><use xlink:href="#g317098B0F05CACEDAC89B9744D27902B" x="13.166015625" y="0" fill="#0f2744" fill-rule="nonzero"/><use xlink:href="#g79796EEB26EA756DB3D6245457F17A60" x="19.749023438" y="0" fill="#0f2744" fill-rule="nonzero"/><use xlink:href="#g79796EEB26EA756DB3D6245457F17A60" x="26.960449219" y="0" fill="#0f2744" fill-rule="nonzero"/><use xlink:href="#g79796EEB26EA756DB3D6245457F17A60" x="34.171875" y="0" fill="#0f2744" fill-rule="nonzero"/><use xlink:href="#g79796EEB26EA756DB3D6245457F17A60" x="41.383300781" y="0" fill="#0f2744" fill-rule="nonzero"/></g></g><g transform="translate(263.622047244 56.858267717)"><g transform="matrix(1 0 0 -1 90.578411433 5.998535156)"><use xlink:href="#gB0316B91885192624BDDE70E035194BD" x="0" y="0" fill="#0f2744" fill-rule="nonzero"/></g><g transform="matrix(1 0 0 -1 17.717083308 5.998535156)"><use xlink:href="#g6ECB8384EE3681294A47069C5AE675A5" x="0" y="0" fill="#0f2744" fill-rule="nonzero"/><use xlink:href="#g989876883D39D9BE945C24C085483079" x="2.63671875" y="0" fill="#0f2744" fill-rule="nonzero"/><use xlink:href="#g6F5A716F6FEB0DE2CBF98EA0FCED208E" x="9.678955078" y="0" fill="#0f2744" fill-rule="nonzero"/><use xlink:href="#gFD39A5B87046D7C7A724811A46030CEE" x="16.010742188" y="0" fill="#0f2744" fill-rule="nonzero"/><use xlink:href="#g15BFC2CC1A3057E283BBC502DDA15CB8" x="18.717041016" y="0" fill="#0f2744" fill-rule="nonzero"/><use xlink:href="#g7E474D6DBE1ABE32C6AF5A3DA5C2BF76" x="21.434326172" y="0" fill="#0f2744" fill-rule="nonzero"/><use xlink:href="#g57C66F9E59C7906258112CF47622C8E1" x="23.49609375" y="0" fill="#0f2744" fill-rule="nonzero"/><use xlink:href="#g75B6B2E45FB735BE3534F2997D46B43E" x="25.78125" y="0" fill="#0f2744" fill-rule="nonzero"/><use xlink:href="#g792D2C2EFA8AA2F0397E8659AD68DE90" x="30.307617188" y="0" fill="#0f2744" fill-rule="nonzero"/><use xlink:href="#g6F5A716F6FEB0DE2CBF98EA0FCED208E" x="35.793457031" y="0" fill="#0f2744" fill-rule="nonzero"/><use xlink:href="#g71D105F1DF8349842E0E6E95031C7B91" x="42.125244141" y="0" fill="#0f2744" fill-rule="nonzero"/><use xlink:href="#gE6DFE870593ECA735C790FA0B4F6EC" x="44.534912109" y="0" fill="#0f2744" fill-rule="nonzero"/><use xlink:href="#g89D8366B7212C2A155665EFD2161E4F8" x="47.508544922" y="0" fill="#0f2744" fill-rule="nonzero"/><use xlink:href="#g73BAEC41E7FB7069692A22058F2FE1D1" x="50.174560547" y="0" fill="#0f2744" fill-rule="nonzero"/><use xlink:href="#gE88D4D9086BC128A82F9D83FF43D0FE3" x="51.602783203" y="0" fill="#0f2744" fill-rule="nonzero"/><use xlink:href="#g13633E8FEEEE6E3F16E48EF0769273CB" x="54.576416016" y="0" fill="#0f2744" fill-rule="nonzero"/><use xlink:href="#g6C5D9BC50800B478E3ABB6DF6EC98264" x="56.8359375" y="0" fill="#0f2744" fill-rule="nonzero"/><use xlink:href="#g697263A93C5ECBA789876ADCEA81887E" x="60.223388672" y="0" fill="#0f2744" fill-rule="nonzero"/><use xlink:href="#g89D8366B7212C2A155665EFD2161E4F8" x="63.350830078" y="0" fill="#0f2744" fill-rule="nonzero"/><use xlink:href="#g50863FA581D99D8C3F0FA5F4370D6F08" x="66.016845703" y="0" fill="#0f2744" fill-rule="nonzero"/><use xlink:href="#g11195B019D4D0ED18DF7FB962264110" x="70.623779297" y="0" fill="#0f2744" fill-rule="nonzero"/></g></g><defs><symbol id="g79796EEB26EA756DB3D6245457F17A60" overflow="visible"><path d="M 0 0m 2.953125 1.801757813v -1.634765625h -0.962402344v 1.634765625h -1.463378906v 0.966796875h 1.463378906v 1.51171875h 0.962402344v -1.51171875h 1.463378906v -0.966796875h -1.463378906Z "/></symbol><symbol id="g317098B0F05CACEDAC89B9744D27902B" overflow="visible"><path d="M 0 0m 3.788085938 1.797363281h -3.260742188v 0.962402344h 3.260742188v -0.962402344Z "/></symbol><symbol id="g82C6B294E56E37B06EDB64F46881542E" overflow="visible"><path d="M 0 0m 1.831054688 0h -0.933837891v 0.758056641q 0 1.2890625 -0.14831543 2.230224609q -0.14831543 0.941162109 -0.521850586 1.710205078l 0.867919922 0.314941406q 0.41015625 -0.908203125 0.573120117 -1.946411133q 0.162963867 -1.038208008 0.162963867 -2.319946289v -0.747070313Z "/></symbol><symbol id="g6ECB8384EE3681294A47069C5AE675A5" overflow="visible"><path d="M 0 0m 1.358642578 2.16796875q 0 -0.648193359 0.126342773 -1.276245117q 0.126342773 -0.628051758 0.380859375 -1.135253906q 0.254516602 -0.507202148 0.635375977 -0.79284668l -0.205078125 -0.556640625q -0.556640625 0.260009766 -0.96496582 0.823974609q -0.408325195 0.563964844 -0.629882813 1.323852539q -0.221557617 0.759887695 -0.221557617 1.598510742q 0 0.629882813 0.126342773 1.221313477q 0.126342773 0.591430664 0.362548828 1.098632813q 0.236206055 0.507202148 0.573120117 0.882568359q 0.336914063 0.375366211 0.754394531 0.569458008l 0.205078125 -0.556640625q -0.380859375 -0.285644531 -0.635375977 -0.791015625q -0.254516602 -0.505371094 -0.380859375 -1.133422852q -0.126342773 -0.628051758 -0.126342773 -1.276245117Z "/></symbol><symbol id="g792D2C2EFA8AA2F0397E8659AD68DE90" overflow="visible"><path d="M 0 0m 2.552490234 3.109130859l 0.633544922 -0.633544922l -0.633544922 -0.633544922l -0.633544922 0.633544922l 0.633544922 0.633544922Z m 0.043945313 -4.020996094q 0.541992188 0 0.853271484 0.173950195q 0.311279297 0.173950195 0.44128418 0.472412109q 0.130004883 0.298461914 0.130004883 0.664672852q 0 0.402832031 -0.124511719 0.822143555q -0.124511719 0.419311523 -0.270996094 0.781860352l 0.908203125 0.344238281l 0.29296875 -0.886230469q 0.062255859 -0.201416016 0.197753906 -0.338745117q 0.135498047 -0.137329102 0.388183594 -0.137329102h 0.146484375v -0.985107422h -0.131835938q -0.17578125 0 -0.296630859 0.029296875q -0.120849609 0.029296875 -0.227050781 0.109863281q -0.095214844 -0.922851563 -0.673828125 -1.472167969q -0.578613281 -0.549316406 -1.633300781 -0.549316406q -0.791015625 0 -1.294555664 0.298461914q -0.503540039 0.298461914 -0.743408203 0.811157227q -0.239868164 0.512695313 -0.239868164 1.149902344q 0 0.424804688 0.095214844 0.880737305q 0.095214844 0.455932617 0.263671875 0.90637207l 0.831298828 -0.322265625q -0.128173828 -0.377197266 -0.216064453 -0.743408203q -0.087890625 -0.366210938 -0.087890625 -0.692138672q 0 -0.358886719 0.126342773 -0.659179688q 0.126342773 -0.300292969 0.430297852 -0.479736328q 0.303955078 -0.179443359 0.834960938 -0.179443359Z "/></symbol><symbol id="g6F5A716F6FEB0DE2CBF98EA0FCED208E" overflow="visible"><path d="M 0 0m 3.262939453 5.148925781l 0.571289063 -0.571289063l -0.571289063 -0.571289063l -0.571289063 0.571289063l 0.571289063 0.571289063Z m 0.637207031 -0.933837891l 0.571289063 -0.571289063l -0.571289063 -0.571289063l -0.567626953 0.571289063l 0.567626953 0.571289063Z m -1.274414063 0l 0.571289063 -0.571289063l -0.571289063 -0.571289063l -0.571289063 0.571289063l 0.571289063 0.571289063Z m 1.768798828 -4.215087891q -0.333251953 0 -0.556640625 0.137329102q -0.223388672 0.137329102 -0.373535156 0.349731445q -0.190429688 -0.216064453 -0.430297852 -0.3515625q -0.239868164 -0.135498047 -0.55480957 -0.135498047q -0.380859375 0 -0.628051758 0.130004883q -0.247192383 0.130004883 -0.401000977 0.349731445q -0.197753906 -0.223388672 -0.472412109 -0.3515625q -0.274658203 -0.128173828 -0.714111328 -0.128173828h -0.336914063v 0.985107422h 0.344238281q 0.413818359 0 0.593261719 0.111694336q 0.179443359 0.111694336 0.179443359 0.507202148q 0 0.084228516 -0.012817383 0.313110352q -0.012817383 0.228881836 -0.03112793 0.43762207l 0.856933594 0.106201172l 0.076904297 -0.948486328q 0.032958984 -0.52734375 0.552978516 -0.52734375q 0.322265625 0 0.430297852 0.142822266q 0.108032227 0.142822266 0.108032227 0.476074219q 0 0.080566406 -0.012817383 0.311279297q -0.012817383 0.230712891 -0.03112793 0.439453125l 0.856933594 0.106201172l 0.076904297 -0.948486328q 0.014648438 -0.238037109 0.120849609 -0.38269043q 0.106201172 -0.14465332 0.355224609 -0.14465332q 0.230712891 0 0.32409668 0.159301758q 0.093383789 0.159301758 0.093383789 0.459594727q 0 0.131835938 -0.012817383 0.360717773q -0.012817383 0.228881836 -0.03112793 0.455932617l 0.856933594 0.106201172l 0.076904297 -1.014404297q 0.018310547 -0.285644531 0.162963867 -0.406494141q 0.14465332 -0.120849609 0.433959961 -0.120849609h 0.109863281v -0.985107422h -0.102539063q -0.344238281 0 -0.604248047 0.122680664q -0.260009766 0.122680664 -0.399169922 0.338745117q -0.146484375 -0.201416016 -0.362548828 -0.331420898q -0.216064453 -0.130004883 -0.541992188 -0.130004883Z "/></symbol><symbol id="g71D105F1DF8349842E0E6E95031C7B91" overflow="visible"><path d="M 0 0m 0.710449219 0h -0.791015625v 0.985107422h 0.791015625q 0.296630859 0 0.404663086 0.179443359q 0.108032227 0.179443359 0.108032227 0.457763672q 0 0.249023438 -0.054931641 0.540161133q -0.054931641 0.291137695 -0.1171875 0.569458008l 0.897216797 0.230712891q 0.069580078 -0.333251953 0.109863281 -0.661010742q 0.040283203 -0.327758789 0.040283203 -0.624389648q 0 -0.479736328 -0.128173828 -0.858764648q -0.128173828 -0.37902832 -0.432128906 -0.598754883q -0.303955078 -0.219726563 -0.827636719 -0.219726563Z m 0.538330078 -0.490722656l 0.607910156 -0.600585938l -0.607910156 -0.607910156l -0.600585938 0.607910156l 0.600585938 0.600585938Z m -1.23046875 0l 0.607910156 -0.600585938l -0.607910156 -0.607910156l -0.600585938 0.607910156l 0.600585938 0.600585938Z "/></symbol><symbol id="gE6DFE870593ECA735C790FA0B4F6EC" overflow="visible"><path d="M 0 0m 1.589355469 4.171142578l 0.633544922 -0.633544922l -0.633544922 -0.633544922l -0.633544922 0.633544922l 0.633544922 0.633544922Z m 1.354980469 -4.171142578q -0.179443359 0 -0.327758789 0.040283203q -0.14831543 0.040283203 -0.247192383 0.102539063q -0.131835938 -0.816650391 -0.681152344 -1.382446289q -0.549316406 -0.565795898 -1.519775391 -0.752563477l -0.336914063 0.900878906q 0.812988281 0.17578125 1.254272461 0.552978516q 0.44128418 0.377197266 0.44128418 1.105957031q 0 0.329589844 -0.097045898 0.73059082q -0.097045898 0.401000977 -0.217895508 0.759887695l 0.908203125 0.300292969l 0.212402344 -0.816650391q 0.062255859 -0.249023438 0.194091797 -0.402832031q 0.131835938 -0.153808594 0.377197266 -0.153808594h 0.142822266v -0.985107422h -0.102539063Z "/></symbol><symbol id="g89D8366B7212C2A155665EFD2161E4F8" overflow="visible"><path d="M 0 0m 0.966796875 0h -1.040039063v 0.985107422h 1.040039063q 0.296630859 0 0.404663086 0.179443359q 0.108032227 0.179443359 0.108032227 0.457763672q 0 0.249023438 -0.054931641 0.540161133q -0.054931641 0.291137695 -0.1171875 0.569458008l 0.897216797 0.230712891q 0.069580078 -0.333251953 0.109863281 -0.661010742q 0.040283203 -0.327758789 0.040283203 -0.624389648q 0 -0.479736328 -0.128173828 -0.858764648q -0.128173828 -0.37902832 -0.432128906 -0.598754883q -0.303955078 -0.219726563 -0.827636719 -0.219726563Z m 0.538330078 -0.490722656l 0.607910156 -0.600585938l -0.607910156 -0.607910156l -0.600585938 0.607910156l 0.600585938 0.600585938Z m -1.23046875 0l 0.607910156 -0.600585938l -0.607910156 -0.607910156l -0.600585938 0.607910156l 0.600585938 0.600585938Z "/></symbol><symbol id="g73BAEC41E7FB7069692A22058F2FE1D1" overflow="visible"><path d="M 0 0m 1.428222656 5.115966797v -5.112304688h -0.915527344v 5.112304688h 0.915527344Z "/></symbol><symbol id="gE88D4D9086BC128A82F9D83FF43D0FE3" overflow="visible"><path d="M 0 0m 2.944335938 0q -0.179443359 0 -0.327758789 0.040283203q -0.14831543 0.040283203 -0.247192383 0.102539063q -0.131835938 -0.816650391 -0.681152344 -1.382446289q -0.549316406 -0.565795898 -1.519775391 -0.752563477l -0.336914063 0.900878906q 0.812988281 0.17578125 1.254272461 0.552978516q 0.44128418 0.377197266 0.44128418 1.105957031q 0 0.329589844 -0.097045898 0.73059082q -0.097045898 0.401000977 -0.217895508 0.759887695l 0.908203125 0.300292969l 0.212402344 -0.816650391q 0.062255859 -0.249023438 0.194091797 -0.402832031q 0.131835938 -0.153808594 0.377197266 -0.153808594h 0.142822266v -0.985107422h -0.102539063Z "/></symbol><symbol id="g13633E8FEEEE6E3F16E48EF0769273CB" overflow="visible"><path d="M 0 0m -0.073242188 0.985107422h 0.281982422q 0.395507813 0 0.509033203 0.192260742q 0.113525391 0.192260742 0.113525391 0.55847168v 3.380126953h 0.919189453v -3.449707031q 0 -0.823974609 -0.364379883 -1.245117188q -0.364379883 -0.421142578 -1.181030273 -0.421142578h -0.278320313v 0.985107422Z "/></symbol><symbol id="g6C5D9BC50800B478E3ABB6DF6EC98264" overflow="visible"><path d="M 0 0m 1.673583984 2.962646484q 0.446777344 0 0.767211914 -0.26550293q 0.32043457 -0.26550293 0.501708984 -0.714111328q 0.181274414 -0.448608398 0.210571289 -0.997924805h 0.307617188v -0.985107422h -0.373535156q -0.194091797 -0.794677734 -0.783691406 -1.287231445q -0.589599609 -0.492553711 -1.669921875 -0.701293945l -0.333251953 0.900878906q 0.717773438 0.139160156 1.235961914 0.413818359q 0.518188477 0.274658203 0.657348633 0.673828125h -0.388183594q -0.728759766 0 -1.111450195 0.303955078q -0.38269043 0.303955078 -0.38269043 0.970458984q 0 0.270996094 0.084228516 0.565795898q 0.084228516 0.294799805 0.252685547 0.549316406q 0.168457031 0.254516602 0.424804688 0.413818359q 0.256347656 0.159301758 0.600585938 0.159301758Z m 0.120849609 -1.977539063h 0.501708984q -0.021972656 0.256347656 -0.091552734 0.487060547q -0.069580078 0.230712891 -0.199584961 0.375366211q -0.130004883 0.14465332 -0.338745117 0.14465332q -0.183105469 0 -0.291137695 -0.115356445q -0.108032227 -0.115356445 -0.151977539 -0.274658203q -0.043945313 -0.159301758 -0.043945313 -0.291137695q 0 -0.205078125 0.164794922 -0.26550293q 0.164794922 -0.060424805 0.450439453 -0.060424805Z "/></symbol><symbol id="g817223F373698CF0314A9CF68DA405A6" overflow="visible"><path d="M 0 0m -0.076904297 0.985107422h 1.190185547q 0.296630859 0 0.404663086 0.179443359q 0.108032227 0.179443359 0.108032227 0.457763672q 0 0.249023438 -0.054931641 0.540161133q -0.054931641 0.291137695 -0.1171875 0.569458008l 0.897216797 0.230712891q 0.069580078 -0.333251953 0.109863281 -0.661010742q 0.040283203 -0.327758789 0.040283203 -0.624389648q 0 -0.479736328 -0.128173828 -0.858764648q -0.128173828 -0.37902832 -0.432128906 -0.598754883q -0.303955078 -0.219726563 -0.827636719 -0.219726563h -1.190185547v 0.985107422Z m 1.735839844 -1.365966797l 0.571289063 -0.571289063l -0.571289063 -0.571289063l -0.567626953 0.571289063l 0.567626953 0.571289063Z m -1.274414063 0l 0.571289063 -0.571289063l -0.571289063 -0.571289063l -0.571289063 0.571289063l 0.571289063 0.571289063Z m 0.637207031 -0.9375l 0.571289063 -0.567626953l -0.571289063 -0.571289063l -0.571289063 0.571289063l 0.571289063 0.567626953Z "/></symbol><symbol id="g75B6B2E45FB735BE3534F2997D46B43E" overflow="visible"><path d="M 0 0m 1.278076172 2.16796875q 0 0.648193359 -0.124511719 1.276245117q -0.124511719 0.628051758 -0.377197266 1.133422852q -0.252685547 0.505371094 -0.637207031 0.791015625l 0.201416016 0.556640625q 0.417480469 -0.194091797 0.754394531 -0.567626953q 0.336914063 -0.373535156 0.573120117 -0.877075195q 0.236206055 -0.503540039 0.362548828 -1.093139648q 0.126342773 -0.589599609 0.126342773 -1.219482422q 0 -0.629882813 -0.126342773 -1.221313477q -0.126342773 -0.591430664 -0.362548828 -1.094970703q -0.236206055 -0.503540039 -0.573120117 -0.877075195q -0.336914063 -0.373535156 -0.754394531 -0.567626953l -0.201416016 0.556640625q 0.384521484 0.285644531 0.637207031 0.79284668q 0.252685547 0.507202148 0.377197266 1.135253906q 0.124511719 0.628051758 0.124511719 1.276245117Z "/></symbol><symbol id="g989876883D39D9BE945C24C085483079" overflow="visible"><path d="M 0 0m 4.050292969 3.933105469l 0.607910156 -0.600585938l -0.607910156 -0.607910156l -0.600585938 0.607910156l 0.600585938 0.600585938Z m -1.23046875 0l 0.607910156 -0.600585938l -0.607910156 -0.607910156l -0.600585938 0.607910156l 0.600585938 0.600585938Z m 2.673339844 -1.483154297l 0.856933594 0.102539063l 0.073242188 -1.010742188q 0.018310547 -0.289306641 0.157470703 -0.422973633q 0.139160156 -0.133666992 0.450439453 -0.133666992h 0.084228516v -0.985107422h -0.084228516q -0.417480469 0 -0.693969727 0.155639648q -0.276489258 0.155639648 -0.455932617 0.43762207q -0.329589844 -0.314941406 -0.807495117 -0.454101563q -0.477905273 -0.139160156 -1.25793457 -0.139160156h -0.611572266q -0.856933594 0 -1.508789063 0.150146484q -0.651855469 0.150146484 -1.018066406 0.538330078q -0.366210938 0.388183594 -0.366210938 1.105957031q 0 0.314941406 0.071411133 0.615234375q 0.071411133 0.300292969 0.177612305 0.556640625l 0.8203125 -0.311279297q -0.05859375 -0.168457031 -0.119018555 -0.386352539q -0.060424805 -0.217895508 -0.060424805 -0.419311523q 0 -0.377197266 0.263671875 -0.562133789q 0.263671875 -0.184936523 0.717773438 -0.243530273q 0.454101563 -0.05859375 1.021728516 -0.05859375h 0.611572266q 0.541992188 0 0.924682617 0.047607422q 0.38269043 0.047607422 0.5859375 0.194091797q 0.20324707 0.146484375 0.20324707 0.443115234q 0 0.183105469 -0.010986328 0.395507813q -0.010986328 0.212402344 -0.025634766 0.384521484Z "/></symbol><symbol id="gD31DE949745316356C664D02005989B5" overflow="visible"><path d="M 0 0m -0.073242188 0.985107422h 0.622558594q 0.494384766 0 0.908203125 0.097045898q 0.413818359 0.097045898 0.853271484 0.285644531q 0.439453125 0.188598633 0.999755859 0.459594727q -0.552978516 0.205078125 -0.939331055 0.360717773q -0.386352539 0.155639648 -0.518188477 0.155639648q -0.201416016 0 -0.364379883 -0.124511719q -0.162963867 -0.124511719 -0.272827148 -0.267333984l -0.17578125 -0.219726563l -0.769042969 0.373535156l 0.142822266 0.234375q 0.252685547 0.413818359 0.609741211 0.686645508q 0.357055664 0.272827148 0.833129883 0.272827148q 0.197753906 0 0.466918945 -0.095214844q 0.269165039 -0.095214844 0.580444336 -0.236206055q 0.311279297 -0.140991211 0.642700195 -0.281982422q 0.331420898 -0.140991211 0.659179688 -0.238037109q 0.327758789 -0.097045898 0.624389648 -0.104370117v -0.900878906q -0.252685547 -0.032958984 -0.485229492 -0.1171875q -0.232543945 -0.084228516 -0.49621582 -0.216064453q -0.263671875 -0.131835938 -0.611572266 -0.318603516q -0.46875 -0.249023438 -0.882568359 -0.426635742q -0.413818359 -0.177612305 -0.84777832 -0.270996094q -0.433959961 -0.093383789 -0.96862793 -0.093383789h -0.611572266v 0.985107422Z "/></symbol><symbol id="g61C9F8D8F1F29ADFDB1A513293D804EB" overflow="visible"><path d="M 0 0m 1.545410156 4.328613281l 0.607910156 -0.600585938l -0.607910156 -0.607910156l -0.600585938 0.607910156l 0.600585938 0.600585938Z m -1.23046875 0l 0.607910156 -0.600585938l -0.607910156 -0.607910156l -0.600585938 0.607910156l 0.600585938 0.600585938Z m -0.388183594 -3.343505859h 0.512695313q 0.413818359 0 0.574951172 0.150146484q 0.161132813 0.150146484 0.161132813 0.531005859q 0 0.205078125 -0.009155273 0.399169922q -0.009155273 0.194091797 -0.02746582 0.384521484l 0.856933594 0.102539063l 0.073242188 -1.010742188q 0.018310547 -0.289306641 0.162963867 -0.422973633q 0.14465332 -0.133666992 0.452270508 -0.133666992h 0.076904297v -0.985107422h -0.084228516q -0.373535156 0 -0.631713867 0.135498047q -0.258178711 0.135498047 -0.422973633 0.355224609q -0.216064453 -0.234375 -0.525512695 -0.362548828q -0.309448242 -0.128173828 -0.657348633 -0.128173828h -0.512695313v 0.985107422Z "/></symbol><symbol id="gFA49B66BB0CB58E96CC41C3A2A6AB952" overflow="visible"><path d="M 0 0m 2.479248047 0q -0.380859375 0 -0.628051758 0.130004883q -0.247192383 0.130004883 -0.401000977 0.349731445q -0.197753906 -0.223388672 -0.472412109 -0.3515625q -0.274658203 -0.128173828 -0.714111328 -0.128173828h -0.336914063v 0.985107422h 0.344238281q 0.413818359 0 0.593261719 0.111694336q 0.179443359 0.111694336 0.179443359 0.507202148q 0 0.084228516 -0.012817383 0.313110352q -0.012817383 0.228881836 -0.03112793 0.43762207l 0.856933594 0.106201172l 0.076904297 -0.948486328q 0.032958984 -0.52734375 0.552978516 -0.52734375q 0.322265625 0 0.430297852 0.142822266q 0.108032227 0.142822266 0.108032227 0.476074219q 0 0.080566406 -0.012817383 0.311279297q -0.012817383 0.230712891 -0.03112793 0.439453125l 0.856933594 0.106201172l 0.076904297 -0.948486328q 0.014648438 -0.238037109 0.120849609 -0.38269043q 0.106201172 -0.14465332 0.355224609 -0.14465332q 0.234375 0 0.322265625 0.183105469q 0.087890625 0.183105469 0.087890625 0.435791016q 0 0.205078125 -0.034790039 0.419311523q -0.034790039 0.214233398 -0.078735352 0.393676758q -0.043945313 0.179443359 -0.065917969 0.267333984l 0.882568359 0.241699219q 0.073242188 -0.281982422 0.120849609 -0.598754883q 0.047607422 -0.316772461 0.047607422 -0.631713867q 0 -0.443115234 -0.1171875 -0.829467773q -0.1171875 -0.386352539 -0.397338867 -0.626220703q -0.280151367 -0.239868164 -0.763549805 -0.239868164q -0.333251953 0 -0.556640625 0.137329102q -0.223388672 0.137329102 -0.373535156 0.349731445q -0.190429688 -0.216064453 -0.430297852 -0.3515625q -0.239868164 -0.135498047 -0.55480957 -0.135498047Z "/></symbol><symbol id="g7E474D6DBE1ABE32C6AF5A3DA5C2BF76" overflow="visible"><path d="M 0 0m 0.509033203 5.115966797h 0.919189453v -3.376464844q 0 -0.413818359 0.126342773 -0.584106445q 0.126342773 -0.170288086 0.488891602 -0.170288086h 0.091552734v -0.985107422h -0.091552734q -0.794677734 0 -1.164550781 0.415649414q -0.369873047 0.415649414 -0.369873047 1.254272461v 3.446044922Z "/></symbol><symbol id="g11195B019D4D0ED18DF7FB962264110" overflow="visible"><path d="M 0 0m 0.479736328 0.615234375q 0 0.260009766 0.188598633 0.435791016q 0.188598633 0.17578125 0.452270508 0.17578125q 0.263671875 0 0.448608398 -0.17578125q 0.184936523 -0.17578125 0.184936523 -0.435791016q 0 -0.263671875 -0.186767578 -0.439453125q -0.186767578 -0.17578125 -0.446777344 -0.17578125q -0.270996094 0 -0.455932617 0.173950195q -0.184936523 0.173950195 -0.184936523 0.44128418Z "/></symbol><symbol id="g3FDDFA479DC1CAC10470E4B92DC3A87" overflow="visible"><path d="M 0 0m 3.720703125 4.932861328q 0.014648438 -0.164794922 0.02746582 -0.338745117q 0.012817383 -0.173950195 0.012817383 -0.335083008q 0 -0.516357422 -0.133666992 -0.911865234q -0.133666992 -0.395507813 -0.444946289 -0.620727539q -0.311279297 -0.225219727 -0.849609375 -0.225219727q -0.109863281 0 -0.274658203 0.010986328q -0.164794922 0.010986328 -0.318603516 0.047607422q 0.054931641 -0.487060547 0.071411133 -0.939331055q 0.016479492 -0.452270508 0.016479492 -0.873413086v -0.747070313h -0.930175781v 0.758056641q 0 1.2890625 -0.14831543 2.230224609q -0.14831543 0.941162109 -0.521850586 1.710205078l 0.871582031 0.307617188q 0.102539063 -0.256347656 0.177612305 -0.455932617q 0.075073242 -0.199584961 0.177612305 -0.452270508q 0.135498047 -0.336914063 0.300292969 -0.472412109q 0.164794922 -0.135498047 0.549316406 -0.135498047q 0.322265625 0 0.463256836 0.186767578q 0.140991211 0.186767578 0.140991211 0.457763672q 0 0.194091797 -0.021972656 0.369873047q -0.021972656 0.17578125 -0.051269531 0.344238281l 0.886230469 0.084228516Z "/></symbol><symbol id="gA1E3C31A0A1FBCE137CE958AB7AF9572" overflow="visible"><path d="M 0 0m 2.596435547 -1.882324219q -0.805664063 0 -1.307373047 0.305786133q -0.501708984 0.305786133 -0.736083984 0.8203125q -0.234375 0.514526367 -0.234375 1.14074707q 0 0.340576172 0.067749023 0.723266602q 0.067749023 0.38269043 0.217895508 0.79284668l 0.831298828 -0.303955078q -0.230712891 -0.670166016 -0.230712891 -1.204833984q 0 -0.362548828 0.128173828 -0.657348633q 0.128173828 -0.294799805 0.433959961 -0.470581055q 0.305786133 -0.17578125 0.829467773 -0.17578125q 0.574951172 0 0.935668945 0.124511719q 0.360717773 0.124511719 0.529174805 0.281982422q 0.168457031 0.157470703 0.168457031 0.256347656q 0 0.139160156 -0.130004883 0.194091797q -0.130004883 0.054931641 -0.411987305 0.054931641h -0.567626953q -0.135498047 0 -0.17578125 0.073242188q -0.040283203 0.073242188 -0.076904297 0.197753906l -0.142822266 0.52734375q -0.021972656 0.080566406 -0.010986328 0.131835938q 0.010986328 0.051269531 0.128173828 0.051269531h 2.175292969v -0.981445313h -0.007324219q 0.029296875 -0.080566406 0.036621094 -0.131835938q 0.007324219 -0.051269531 0.007324219 -0.113525391q 0 -0.424804688 -0.285644531 -0.798339844q -0.285644531 -0.373535156 -0.833129883 -0.606079102q -0.547485352 -0.232543945 -1.338500977 -0.232543945Z "/></symbol><symbol id="gBE10D17F4A165111A8248E05E0217B0A" overflow="visible"><path d="M 0 0m 2.215576172 5.775146484l 0.607910156 -0.600585938l -0.607910156 -0.607910156l -0.600585938 0.607910156l 0.600585938 0.600585938Z m -1.23046875 0l 0.607910156 -0.600585938l -0.607910156 -0.607910156l -0.600585938 0.607910156l 0.600585938 0.600585938Z m 0.333251953 -4.790039063q 0.494384766 0 0.747070313 0.082397461q 0.252685547 0.082397461 0.256347656 0.415649414q -0.278320313 -0.065917969 -0.604248047 -0.065917969q -0.640869141 0 -1.007080078 0.267333984q -0.366210938 0.267333984 -0.366210938 0.856933594q 0 0.388183594 0.164794922 0.759887695q 0.164794922 0.371704102 0.46875 0.61706543q 0.303955078 0.245361328 0.717773438 0.245361328q 0.399169922 0 0.682983398 -0.197753906q 0.283813477 -0.197753906 0.463256836 -0.532836914q 0.179443359 -0.335083008 0.26550293 -0.748901367q 0.08605957 -0.413818359 0.08605957 -0.845947266q 0 -0.754394531 -0.201416016 -1.151733398q -0.201416016 -0.397338867 -0.624389648 -0.541992188q -0.422973633 -0.14465332 -1.093139648 -0.14465332h -1.34765625v 0.985107422h 1.391601563Z m 0.395507813 1.278076172q 0.281982422 0 0.582275391 0.069580078q -0.029296875 0.190429688 -0.100708008 0.395507813q -0.071411133 0.205078125 -0.195922852 0.346069336q -0.124511719 0.140991211 -0.311279297 0.140991211q -0.249023438 0 -0.375366211 -0.208740234q -0.126342773 -0.208740234 -0.126342773 -0.424804688q 0 -0.205078125 0.150146484 -0.26184082q 0.150146484 -0.056762695 0.377197266 -0.056762695Z "/></symbol><symbol id="g57C66F9E59C7906258112CF47622C8E1" overflow="visible"><path d="M 0 0m 0.5859375 0h -0.662841797v 0.985107422h 0.662841797q 0.296630859 0 0.404663086 0.179443359q 0.108032227 0.179443359 0.108032227 0.457763672q 0 0.249023438 -0.054931641 0.540161133q -0.054931641 0.291137695 -0.1171875 0.569458008l 0.897216797 0.230712891q 0.069580078 -0.333251953 0.109863281 -0.661010742q 0.040283203 -0.327758789 0.040283203 -0.624389648q 0 -0.479736328 -0.128173828 -0.858764648q -0.128173828 -0.37902832 -0.432128906 -0.598754883q -0.303955078 -0.219726563 -0.827636719 -0.219726563Z m 0.091552734 -0.457763672l 0.633544922 -0.633544922l -0.633544922 -0.633544922l -0.633544922 0.633544922l 0.633544922 0.633544922Z "/></symbol><symbol id="gBCC1EC0B72AB34C51FBAF953EAACB8D9" overflow="visible"><path d="M 0 0m 4.786376953 2.530517578l -0.003662109 -0.889892578q -0.498046875 -0.040283203 -1.007080078 -0.150146484q -0.509033203 -0.109863281 -0.974121094 -0.285644531q -0.465087891 -0.17578125 -0.829467773 -0.421142578q -0.364379883 -0.245361328 -0.574951172 -0.55480957q -0.210571289 -0.309448242 -0.210571289 -0.682983398q 0 -0.552978516 0.459594727 -0.838623047q 0.459594727 -0.285644531 1.192016602 -0.285644531q 0.494384766 0 0.957641602 0.095214844q 0.463256836 0.095214844 0.833129883 0.245361328l 0.274658203 -0.915527344q -0.472412109 -0.194091797 -0.999755859 -0.285644531q -0.52734375 -0.091552734 -1.043701172 -0.091552734q -0.706787109 0 -1.285400391 0.208740234q -0.578613281 0.208740234 -0.919189453 0.661010742q -0.340576172 0.452270508 -0.340576172 1.181030273q 0 0.684814453 0.336914063 1.210327148q 0.336914063 0.525512695 0.908203125 0.888061523q 0.571289063 0.362548828 1.274414063 0.549316406q -0.366210938 0.153808594 -0.639038086 0.258178711q -0.272827148 0.104370117 -0.37902832 0.104370117q -0.205078125 0 -0.369873047 -0.120849609q -0.164794922 -0.120849609 -0.281982422 -0.270996094l -0.17578125 -0.223388672l -0.765380859 0.377197266l 0.139160156 0.230712891q 0.263671875 0.428466797 0.622558594 0.695800781q 0.358886719 0.267333984 0.834960938 0.267333984q 0.197753906 0 0.465087891 -0.095214844q 0.267333984 -0.095214844 0.578613281 -0.236206055q 0.311279297 -0.140991211 0.640869141 -0.281982422q 0.329589844 -0.140991211 0.657348633 -0.238037109q 0.327758789 -0.097045898 0.624389648 -0.104370117Z m -1.695556641 -1.999511719l 0.633544922 -0.633544922l -0.633544922 -0.633544922l -0.633544922 0.633544922l 0.633544922 0.633544922Z "/></symbol><symbol id="gB57F8D2D57468A72FE942ED39A88A05D" overflow="visible"><path d="M 0 0m 2.497558594 -0.084228516q -0.377197266 0 -0.703125 0.162963867q -0.325927734 0.162963867 -0.648193359 0.419311523q -0.208740234 -0.212402344 -0.426635742 -0.355224609q -0.217895508 -0.142822266 -0.631713867 -0.142822266h -0.161132813v 0.985107422h 0.142822266q 0.194091797 0 0.342407227 0.140991211q 0.14831543 0.140991211 0.281982422 0.360717773q 0.133666992 0.219726563 0.276489258 0.46875q 0.142822266 0.249023438 0.32409668 0.46875q 0.181274414 0.219726563 0.422973633 0.360717773q 0.241699219 0.140991211 0.574951172 0.140991211q 0.450439453 0 0.781860352 -0.214233398q 0.331420898 -0.214233398 0.510864258 -0.565795898q 0.179443359 -0.3515625 0.179443359 -0.769042969q 0 -0.640869141 -0.318603516 -1.051025391q -0.318603516 -0.41015625 -0.948486328 -0.41015625Z m -0.17578125 2.072753906q -0.157470703 0 -0.283813477 -0.104370117q -0.126342773 -0.104370117 -0.221557617 -0.258178711q -0.095214844 -0.153808594 -0.164794922 -0.296630859q 0.205078125 -0.194091797 0.395507813 -0.303955078q 0.139160156 -0.080566406 0.252685547 -0.111694336q 0.113525391 -0.03112793 0.201416016 -0.03112793q 0.208740234 0 0.302124023 0.139160156q 0.093383789 0.139160156 0.093383789 0.336914063q 0 0.260009766 -0.151977539 0.444946289q -0.151977539 0.184936523 -0.422973633 0.184936523Z "/></symbol><symbol id="g7072D6B8B444B544965E272625A85940" overflow="visible"><path d="M 0 0m 2.1 3.3825c -0.315 -0.36 -0.6 -0.6375 -0.8625 -0.8325c -0.2925 -0.2175 -0.555 -0.3675 -0.78 -0.45v -0.1725c 0.3225 -0.135 0.585 -0.2925 0.8025 -0.495c 0.4425 -0.39 0.72 -0.6675 0.84 -0.825h 0.525c -0.12 0.2475 -0.2475 0.48 -0.3825 0.6975c -0.105 0.1575 -0.225 0.315 -0.36 0.4575h 6.3225v 0.4575h -6.33c 0.195 0.2475 0.3075 0.405 0.3675 0.495c 0.1575 0.2625 0.285 0.4875 0.3675 0.6675Z "/></symbol><symbol id="g697263A93C5ECBA789876ADCEA81887E" overflow="visible"><path d="M 0 0m -0.076904297 0.985107422h 0.955810547q 0.413818359 0 0.574951172 0.150146484q 0.161132813 0.150146484 0.161132813 0.531005859q 0 0.205078125 -0.009155273 0.399169922q -0.009155273 0.194091797 -0.02746582 0.384521484l 0.856933594 0.102539063l 0.073242188 -1.010742188q 0.018310547 -0.289306641 0.162963867 -0.422973633q 0.14465332 -0.133666992 0.452270508 -0.133666992h 0.076904297v -0.985107422h -0.084228516q -0.373535156 0 -0.631713867 0.135498047q -0.258178711 0.135498047 -0.422973633 0.355224609q -0.216064453 -0.234375 -0.525512695 -0.362548828q -0.309448242 -0.128173828 -0.657348633 -0.128173828h -0.955810547v 0.985107422Z m 1.735839844 -1.365966797l 0.571289063 -0.571289063l -0.571289063 -0.571289063l -0.567626953 0.571289063l 0.567626953 0.571289063Z m -1.274414063 0l 0.571289063 -0.571289063l -0.571289063 -0.571289063l -0.571289063 0.571289063l 0.571289063 0.571289063Z m 0.637207031 -0.9375l 0.571289063 -0.567626953l -0.571289063 -0.571289063l -0.571289063 0.571289063l 0.571289063 0.567626953Z "/></symbol><symbol id="g402BC71647F950272FB6E389E4968BD0" overflow="visible"><path d="M 0 0m 1.267089844 0.970458984q 0.336914063 0 0.628051758 0.051269531q 0.291137695 0.051269531 0.472412109 0.177612305q 0.181274414 0.126342773 0.181274414 0.353393555q 0 0.230712891 -0.208740234 0.488891602q -0.208740234 0.258178711 -0.567626953 0.514526367q -0.358886719 0.256347656 -0.809326172 0.476074219l 0.421142578 0.87890625q 0.541992188 -0.267333984 1.005249023 -0.606079102q 0.463256836 -0.338745117 0.748901367 -0.763549805q 0.285644531 -0.424804688 0.285644531 -0.955810547q 0 -0.842285156 -0.563964844 -1.210327148q -0.563964844 -0.368041992 -1.538085938 -0.368041992q -0.281982422 0 -0.529174805 0.021972656q -0.247192383 0.021972656 -0.481567383 0.069580078v 0.981445313q 0.238037109 -0.047607422 0.49987793 -0.078735352q 0.26184082 -0.03112793 0.455932617 -0.03112793Z "/></symbol><symbol id="gB0316B91885192624BDDE70E035194BD" overflow="visible"><path d="M 0 0m 3.607177734 2.501220703q -0.241699219 0 -0.474243164 0.087890625q -0.232543945 0.087890625 -0.360717773 0.252685547q -0.131835938 -0.157470703 -0.340576172 -0.249023438q -0.208740234 -0.091552734 -0.391845703 -0.091552734q -0.065917969 0 -0.146484375 0.003662109q -0.080566406 0.003662109 -0.146484375 0.018310547q 0.051269531 -0.505371094 0.065917969 -0.917358398q 0.014648438 -0.411987305 0.014648438 -0.858764648v -0.747070313h -0.930175781v 0.758056641q 0 1.2890625 -0.14831543 2.230224609q -0.14831543 0.941162109 -0.521850586 1.710205078l 0.871582031 0.307617188q 0.128173828 -0.307617188 0.208740234 -0.547485352q 0.080566406 -0.239868164 0.212402344 -0.551147461q 0.073242188 -0.172119141 0.173950195 -0.294799805q 0.100708008 -0.122680664 0.305786133 -0.122680664q 0.227050781 0 0.302124023 0.161132813q 0.075073242 0.161132813 0.078735352 0.516357422l 0.003662109 0.534667969l 0.765380859 0.040283203l 0.021972656 -0.505371094q 0.018310547 -0.457763672 0.111694336 -0.602416992q 0.093383789 -0.14465332 0.294799805 -0.14465332q 0.146484375 0 0.219726563 0.102539063q 0.073242188 0.102539063 0.098876953 0.26184082q 0.025634766 0.159301758 0.025634766 0.327758789q 0 0.179443359 -0.023803711 0.360717773q -0.023803711 0.181274414 -0.045776367 0.305786133l 0.886230469 0.084228516q 0.040283203 -0.362548828 0.040283203 -0.703125q 0 -0.454101563 -0.108032227 -0.849609375q -0.108032227 -0.395507813 -0.364379883 -0.637207031q -0.256347656 -0.241699219 -0.699462891 -0.241699219Z "/></symbol><symbol id="gFD39A5B87046D7C7A724811A46030CEE" overflow="visible"><path d="M 0 0m 0.227050781 4.398193359v 0.523681641l 2.940673828 1.197509766v -0.52734375l -2.940673828 -1.193847656Z m 0.941162109 -0.981445313q 0.476074219 -0.29296875 0.869750977 -0.5859375q 0.393676758 -0.29296875 0.629882813 -0.631713867q 0.236206055 -0.338745117 0.236206055 -0.767211914q 0 -0.552978516 -0.252685547 -0.866088867q -0.252685547 -0.313110352 -0.719604492 -0.439453125q -0.466918945 -0.126342773 -1.111450195 -0.126342773h -0.893554688v 0.985107422h 0.889892578q 0.611572266 0 0.90637207 0.091552734q 0.294799805 0.091552734 0.294799805 0.369873047q 0 0.142822266 -0.177612305 0.316772461q -0.177612305 0.173950195 -0.446777344 0.358886719q -0.269165039 0.184936523 -0.55480957 0.368041992q -0.285644531 0.183105469 -0.505371094 0.344238281q -0.146484375 0.106201172 -0.221557617 0.276489258q -0.075073242 0.170288086 -0.075073242 0.349731445q 0 0.194091797 0.093383789 0.366210938q 0.093383789 0.172119141 0.287475586 0.249023438l 2.790527344 1.138916016v -0.970458984l -2.039794922 -0.827636719Z "/></symbol><symbol id="g15BFC2CC1A3057E283BBC502DDA15CB8" overflow="visible"><path d="M 0 0m 1.589355469 4.171142578l 0.633544922 -0.633544922l -0.633544922 -0.633544922l -0.633544922 0.633544922l 0.633544922 0.633544922Z m -1.413574219 -6.163330078l -0.344238281 0.900878906q 0.812988281 0.17578125 1.254272461 0.552978516q 0.44128418 0.377197266 0.44128418 1.105957031q 0 0.329589844 -0.097045898 0.73059082q -0.097045898 0.401000977 -0.217895508 0.759887695l 0.911865234 0.300292969q 0.139160156 -0.395507813 0.214233398 -0.836791992q 0.075073242 -0.44128418 0.075073242 -0.855102539q 0 -1.105957031 -0.598754883 -1.779785156q -0.598754883 -0.673828125 -1.638793945 -0.87890625Z "/></symbol><symbol id="g50863FA581D99D8C3F0FA5F4370D6F08" overflow="visible"><path d="M 0 0m 0.17578125 -1.9921875l -0.344238281 0.900878906q 0.812988281 0.17578125 1.254272461 0.552978516q 0.44128418 0.377197266 0.44128418 1.105957031q 0 0.329589844 -0.097045898 0.73059082q -0.097045898 0.401000977 -0.217895508 0.759887695l 0.911865234 0.300292969q 0.139160156 -0.395507813 0.214233398 -0.836791992q 0.075073242 -0.44128418 0.075073242 -0.855102539q 0 -1.105957031 -0.598754883 -1.779785156q -0.598754883 -0.673828125 -1.638793945 -0.87890625Z "/></symbol></defs></svg>